<svg xmlns="http://www.w3.org/2000/svg" viewBox="0 0 55 53" width="55" height="53">
	<style>
		tspan { white-space:pre }
		@-webkit-keyframes squeeze-fadeOut {
			from {
				-webkit-transform: scale(1.0) rotate(0deg);
				transform: scale(1.0) rotate(0deg);
				-webkit-transform-origin: center center;
				transform-origin: center center;
				fill: rgba(31,169,151,1);
			}
			12.5%  {
			    -webkit-transform: scale(0.95) rotate(-7.5deg);
				transform: scale(0.95) rotate(-7.5deg);
				-webkit-transform-origin: center center;
				transform-origin: center center;
				fill: rgba(30,161,144,0.875);
			}
			25% {
				-webkit-transform: scale(0.9) rotate(-15deg);
				transform: scale(0.9) rotate(-15deg);
				-webkit-transform-origin: center center;
				transform-origin: center center;
				fill: rgba(28,153,137,0.75);
			}
			37.5% {
				-webkit-transform: scale(0.85) rotate(-7.5deg);
				transform: scale(0.85) rotate(-7.5deg);
				-webkit-transform-origin: center center;
				transform-origin: center center;
				fill: rgba(27,145,129,0.625);
			}
			50% {
				-webkit-transform: scale(0.8) rotate(0deg);
				transform: scale(0.8) rotate(0deg);
				-webkit-transform-origin: center center;
				transform-origin: center center;
				fill: rgba(25,136,122,0.5);
			}
			62.5% {
			    -webkit-transform: scale(0.85) rotate(7.5deg);
				transform: scale(0.85) rotate(7.5deg);
				-webkit-transform-origin: center center;
				transform-origin: center center;
				fill: rgba(24,129,115,0.375);
			}
			75% {
				-webkit-transform: scale(0.9) rotate(15deg);
				transform: scale(0.9) rotate(15deg);
				-webkit-transform-origin: center center;
				transform-origin: center center;
				fill: rgba(22,121,108,0.25);
			}
			87.5% {
				-webkit-transform: scale(0.95) rotate(7.5deg);
				transform: scale(0.95) rotate(7.5deg);
				-webkit-transform-origin: center center;
				transform-origin: center center;
				fill: rgba(21,112,100,0.125);
			}
			100% {
				-webkit-transform: scale(1.0) rotate(0deg);
				transform: scale(1.0) rotate(0deg);
				-webkit-transform-origin: center center;
				transform-origin: center center;
				fill: rgba(19,104,93,0);
			}
		}
		@keyframes squeeze-fadeOut {
			from {
				-webkit-transform: scale(1.0) rotate(0deg);
				transform: scale(1.0) rotate(0deg);
				-webkit-transform-origin: center center;
				transform-origin: center center;
				fill: rgba(31,169,151,1);
			}
			12.5%  {
			    -webkit-transform: scale(0.95) rotate(-7.5deg);
				transform: scale(0.95) rotate(-7.5deg);
				-webkit-transform-origin: center center;
				transform-origin: center center;
				fill: rgba(30,161,144,0.875);
			}
			25% {
				-webkit-transform: scale(0.9) rotate(-15deg);
				transform: scale(0.9) rotate(-15deg);
				-webkit-transform-origin: center center;
				transform-origin: center center;
				fill: rgba(28,153,137,0.75);
			}
			37.5% {
				-webkit-transform: scale(0.85) rotate(-7.5deg);
				transform: scale(0.85) rotate(-7.5deg);
				-webkit-transform-origin: center center;
				transform-origin: center center;
				fill: rgba(27,145,129,0.625);
			}
			50% {
				-webkit-transform: scale(0.8) rotate(0deg);
				transform: scale(0.8) rotate(0deg);
				-webkit-transform-origin: center center;
				transform-origin: center center;
				fill: rgba(25,136,122,0.5);
			}
			62.5% {
			    -webkit-transform: scale(0.85) rotate(7.5deg);
				transform: scale(0.85) rotate(7.5deg);
				-webkit-transform-origin: center center;
				transform-origin: center center;
				fill: rgba(24,129,115,0.375);
			}
			75% {
				-webkit-transform: scale(0.9) rotate(15deg);
				transform: scale(0.9) rotate(15deg);
				-webkit-transform-origin: center center;
				transform-origin: center center;
				fill: rgba(22,121,108,0.25);
			}
			87.5% {
				-webkit-transform: scale(0.95) rotate(7.5deg);
				transform: scale(0.95) rotate(7.5deg);
				-webkit-transform-origin: center center;
				transform-origin: center center;
				fill: rgba(21,112,100,0.125);
			}
			100% {
				-webkit-transform: scale(1.0) rotate(0deg);
				transform: scale(1.0) rotate(0deg);
				-webkit-transform-origin: center center;
				transform-origin: center center;
				fill: rgba(19,104,93,0);
			}
		}
		@-webkit-keyframes squeeze-fadeIn {
			from {
			    -webkit-transform: scale(1.0) rotate(0deg);
				transform: scale(1.0) rotate(0deg);
				-webkit-transform-origin: center center;
				transform-origin: center center;
				fill: rgba(31,169,151,0);
			}
			12.5%  {
				-webkit-transform: scale(0.95) rotate(-7.5deg);
				transform: scale(0.95) rotate(-7.5deg);
				-webkit-transform-origin: center center;
				transform-origin: center center;
				fill: rgba(30,161,144,0.125);
			}
			25% {
				-webkit-transform: scale(0.9) rotate(-15deg);
				transform: scale(0.9) rotate(-15deg);
				-webkit-transform-origin: center center;
				transform-origin: center center;
				fill: rgba(28,153,137,0.25);
			}
			37.5% {
				-webkit-transform: scale(0.85) rotate(-7.5deg);
				transform: scale(0.85) rotate(-7.5deg);
				-webkit-transform-origin: center center;
				transform-origin: center center;
				fill: rgba(27,145,129,0.375);
			}
			50% {
				-webkit-transform: scale(0.8) rotate(0deg);
				transform: scale(0.8) rotate(0deg);
				-webkit-transform-origin: center center;
				transform-origin: center center;
				fill: rgba(25,136,122,0.5);
			}
			62.5% {
				-webkit-transform: scale(0.85) rotate(7.5deg);
				transform: scale(0.85) rotate(7.5deg);
				-webkit-transform-origin: center center;
				transform-origin: center center;
				fill: rgba(24,129,115,0.625);
			}
			75% {
				-webkit-transform: scale(0.9) rotate(15deg);
				transform: scale(0.9) rotate(15deg);
				-webkit-transform-origin: center center;
				transform-origin: center center;
				fill: rgba(22,121,108,0.75);
			}
			87.5% {
				-webkit-transform: scale(0.95) rotate(7.5deg);
				transform: scale(0.95) rotate(7.5deg);
				-webkit-transform-origin: center center;
				transform-origin: center center;
				fill: rgba(21,112,100,0.875);
			}
			100% {
				-webkit-transform: scale(1.0) rotate(0deg);
				transform: scale(1.0) rotate(0deg);
				-webkit-transform-origin: center center;
				transform-origin: center center;
				fill: rgba(19,104,93,1);
			}
		}
		@keyframes squeeze-fadeIn {
			from {
			    -webkit-transform: scale(1.0) rotate(0deg);
				transform: scale(1.0) rotate(0deg);
				-webkit-transform-origin: center center;
				transform-origin: center center;
				fill: rgba(31,169,151,0);
			}
			12.5%  {
				-webkit-transform: scale(0.95) rotate(-7.5deg);
				transform: scale(0.95) rotate(-7.5deg);
				-webkit-transform-origin: center center;
				transform-origin: center center;
				fill: rgba(30,161,144,0.125);
			}
			25% {
				-webkit-transform: scale(0.9) rotate(-15deg);
				transform: scale(0.9) rotate(-15deg);
				-webkit-transform-origin: center center;
				transform-origin: center center;
				fill: rgba(28,153,137,0.25);
			}
			37.5% {
				-webkit-transform: scale(0.85) rotate(-7.5deg);
				transform: scale(0.85) rotate(-7.5deg);
				-webkit-transform-origin: center center;
				transform-origin: center center;
				fill: rgba(27,145,129,0.375);
			}
			50% {
				-webkit-transform: scale(0.8) rotate(0deg);
				transform: scale(0.8) rotate(0deg);
				-webkit-transform-origin: center center;
				transform-origin: center center;
				fill: rgba(25,136,122,0.5);
			}
			62.5% {
				-webkit-transform: scale(0.85) rotate(7.5deg);
				transform: scale(0.85) rotate(7.5deg);
				-webkit-transform-origin: center center;
				transform-origin: center center;
				fill: rgba(24,129,115,0.625);
			}
			75% {
				-webkit-transform: scale(0.9) rotate(15deg);
				transform: scale(0.9) rotate(15deg);
				-webkit-transform-origin: center center;
				transform-origin: center center;
				fill: rgba(22,121,108,0.75);
			}
			87.5% {
				-webkit-transform: scale(0.95) rotate(7.5deg);
				transform: scale(0.95) rotate(7.5deg);
				-webkit-transform-origin: center center;
				transform-origin: center center;
				fill: rgba(21,112,100,0.875);
			}
			100% {
				-webkit-transform: scale(1.0) rotate(0deg);
				transform: scale(1.0) rotate(0deg);
				-webkit-transform-origin: center center;
				transform-origin: center center;
				fill: rgba(19,104,93,1);
			}
		}
		.shp0, .shp1 {
			fill: rgba(31,169,151,1);
	        background-color: transparent;
	        -webkit-transition: all 1s ease-in-out;
	        -moz-transition: all 1s ease-in-out;
	        -ms-transition: all 1s ease-in-out;
	        -o-transition: all 1s ease-in-out;
	        transition: all 1s ease-in-out;
	        background-color: transparent;
		 }
		 .shp1 {
	        fill: rgba(31,169,151,0);
		 }
		 svg {
			-webkit-transition: all 1s ease-in-out;
	        -moz-transition: all 1s ease-in-out;
	        -ms-transition: all 1s ease-in-out;
	        -o-transition: all 1s ease-in-out;
	        transition: all 1s ease-in-out;	
		}
		svg:hover .shp0, svg:active .shp0 {
			fill: rgba(19,104,93,0);
			-webkit-animation: squeeze-fadeOut 1s ease-in-out;
			animation: squeeze-fadeOut 1s ease-in-out;
		}
		svg:hover .shp1, svg:active .shp1 {
			fill: rgba(19,104,93,1);
			-webkit-animation: squeeze-fadeIn 1s ease-in-out;
			animation: squeeze-fadeIn 1s ease-in-out;
		}

	</style>
	<path
     class="shp1"
     d="m 49.24,21.44 c -0.54,0 -0.97,-0.43 -0.97,-0.96 0,-9.69 -9.47,-17.57 -21.11,-17.57 -11.64,0 -21.11,7.88 -21.11,17.57 0,0.53 -0.43,0.96 -0.97,0.96 -0.54,0 -0.97,-0.43 -0.97,-0.96 0,-10.75 10.34,-19.49 23.05,-19.49 12.71,0 23.05,8.74 23.05,19.49 0,0.53 -0.44,0.96 -0.97,0.96 z m -38.85,18.54 -3.07,0 c -4.03,0 -7.31,-3.25 -7.31,-7.23 l 0,-5.54 c 0,-2.45 1.25,-4.71 3.34,-6.06 0.03,-0.02 0.07,-0.04 0.11,-0.06 L 4.9,20.42 c 0.04,-0.01 0.07,-0.03 0.11,-0.04 0.81,-0.27 1.56,-0.4 2.31,-0.4 l 3.07,0 c 1.72,0 3.12,1.39 3.12,3.09 l 0,13.82 c 0,1.7 -1.4,3.09 -3.12,3.09 z M 4.35,22.8 c -1.51,0.99 -2.4,2.63 -2.4,4.41 l 0,5.54 c 0,2.93 2.41,5.31 5.37,5.31 l 3.07,0 c 0.65,0 1.18,-0.53 1.18,-1.17 l 0,-13.82 c 0,-0.64 -0.53,-1.17 -1.18,-1.17 l -3.07,0 c -0.52,0 -1.06,0.09 -1.65,0.28 z M 9.04,39.05 C 8.5,39.05 8.07,38.63 8.07,38.1 l 0,-17.16 c 0,-0.53 0.43,-0.96 0.97,-0.96 0.53,0 0.97,0.43 0.97,0.96 l 0,17.16 c 0,0.53 -0.44,0.95 -0.97,0.95 z m 1.35,0.93 -3.07,0 c -4.03,0 -7.31,-3.25 -7.31,-7.23 l 0,-5.54 c 0,-2.45 1.25,-4.71 3.34,-6.06 0.03,-0.02 0.07,-0.04 0.11,-0.06 L 4.9,20.42 c 0.04,-0.01 0.07,-0.03 0.11,-0.04 0.81,-0.27 1.56,-0.4 2.31,-0.4 l 3.07,0 c 1.72,0 3.12,1.39 3.12,3.09 l 0,13.82 c 0,1.7 -1.4,3.09 -3.12,3.09 z M 4.35,22.8 c -1.51,0.99 -2.4,2.63 -2.4,4.41 l 0,5.54 c 0,2.93 2.41,5.31 5.37,5.31 l 3.07,0 c 0.65,0 1.18,-0.53 1.18,-1.17 l 0,-13.82 c 0,-0.64 -0.53,-1.17 -1.18,-1.17 l -3.07,0 c -0.52,0 -1.06,0.09 -1.65,0.28 z M 9.04,39.05 C 8.5,39.05 8.07,38.63 8.07,38.1 l 0,-17.16 c 0,-0.53 0.43,-0.96 0.97,-0.96 0.53,0 0.97,0.43 0.97,0.96 l 0,17.16 c 0,0.53 -0.44,0.95 -0.97,0.95 z m 37.66,0.93 -3.07,0 c -1.73,0 -3.13,-1.39 -3.13,-3.09 l 0,-13.82 c 0,-1.7 1.4,-3.09 3.13,-3.09 l 3.07,0 c 0.74,0 1.5,0.13 2.31,0.4 0.04,0.01 0.07,0.03 0.1,0.04 l 1.44,0.67 c 0.04,0.02 0.08,0.04 0.12,0.06 2.09,1.35 3.34,3.61 3.34,6.06 l 0,5.54 c 0,3.98 -3.28,7.23 -7.31,7.23 z M 43.63,21.9 c -0.66,0 -1.19,0.53 -1.19,1.17 l 0,13.82 c 0,0.64 0.53,1.17 1.19,1.17 l 3.07,0 c 2.96,0 5.37,-2.38 5.37,-5.31 l 0,-5.54 c 0,-1.78 -0.9,-3.42 -2.4,-4.41 L 48.34,22.18 C 47.75,21.99 47.22,21.9 46.7,21.9 z m 1.35,17.15 c -0.54,0 -0.97,-0.42 -0.97,-0.95 l 0,-17.16 c 0,-0.53 0.43,-0.96 0.97,-0.96 0.53,0 0.97,0.43 0.97,0.96 l 0,17.16 c 0,0.53 -0.44,0.95 -0.97,0.95 z M 30.35,53 25.69,53 c -2.14,0 -3.88,-1.73 -3.88,-3.85 0,-2.11 1.74,-3.84 3.88,-3.84 l 4.66,0 c 2.14,0 3.88,1.73 3.88,3.84 0,2.12 -1.74,3.85 -3.88,3.85 z m -4.66,-5.77 c -1.07,0 -1.94,0.86 -1.94,1.92 0,1.07 0.87,1.93 1.94,1.93 l 4.66,0 c 1.07,0 1.94,-0.86 1.94,-1.93 0,-1.06 -0.87,-1.92 -1.94,-1.92 z m 11.17,2.88 -2.92,0 c -0.53,0 -0.97,-0.43 -0.97,-0.96 0,-0.53 0.44,-0.95 0.97,-0.95 l 2.92,0 c 0.68,0 1.34,-0.29 1.91,-0.82 l 10.18,-9.54 c 0.39,-0.36 1,-0.34 1.37,0.04 0.36,0.38 0.35,0.99 -0.04,1.36 L 40.1,48.77 c -0.92,0.87 -2.07,1.34 -3.24,1.34 z" />
	<path id="Shape 65" class="shp0" d="M49.24 21.44C48.7 21.44 48.27 21.01 48.27 20.48C48.27 10.79 38.8 2.91 27.16 2.91C15.52 2.91 6.05 10.79 6.05 20.48C6.05 21.01 5.62 21.44 5.08 21.44C4.54 21.44 4.11 21.01 4.11 20.48C4.11 9.73 14.45 0.99 27.16 0.99C39.87 0.99 50.21 9.73 50.21 20.48C50.21 21.01 49.77 21.44 49.24 21.44ZM10.39 39.98L7.32 39.98C3.29 39.98 0.01 36.73 0.01 32.75L0.01 27.21C0.01 24.76 1.26 22.5 3.35 21.15C3.38 21.13 3.42 21.11 3.46 21.09L4.9 20.42C4.94 20.41 4.97 20.39 5.01 20.38C5.82 20.11 6.57 19.98 7.32 19.98L10.39 19.98C12.11 19.98 13.51 21.37 13.51 23.07L13.51 36.89C13.51 38.59 12.11 39.98 10.39 39.98ZM4.35 22.8C2.84 23.79 1.95 25.43 1.95 27.21L1.95 32.75C1.95 35.68 4.36 38.06 7.32 38.06L10.39 38.06C11.04 38.06 11.57 37.53 11.57 36.89L11.57 23.07C11.57 22.43 11.04 21.9 10.39 21.9L7.32 21.9C6.8 21.9 6.26 21.99 5.67 22.18L4.35 22.8ZM9.04 39.05C8.5 39.05 8.07 38.63 8.07 38.1L8.07 20.94C8.07 20.41 8.5 19.98 9.04 19.98C9.57 19.98 10.01 20.41 10.01 20.94L10.01 38.1C10.01 38.63 9.57 39.05 9.04 39.05ZM10.39 39.98L7.32 39.98C3.29 39.98 0.01 36.73 0.01 32.75L0.01 27.21C0.01 24.76 1.26 22.5 3.35 21.15C3.38 21.13 3.42 21.11 3.46 21.09L4.9 20.42C4.94 20.41 4.97 20.39 5.01 20.38C5.82 20.11 6.57 19.98 7.32 19.98L10.39 19.98C12.11 19.98 13.51 21.37 13.51 23.07L13.51 36.89C13.51 38.59 12.11 39.98 10.39 39.98ZM4.35 22.8C2.84 23.79 1.95 25.43 1.95 27.21L1.95 32.75C1.95 35.68 4.36 38.06 7.32 38.06L10.39 38.06C11.04 38.06 11.57 37.53 11.57 36.89L11.57 23.07C11.57 22.43 11.04 21.9 10.39 21.9L7.32 21.9C6.8 21.9 6.26 21.99 5.67 22.18L4.35 22.8ZM9.04 39.05C8.5 39.05 8.07 38.63 8.07 38.1L8.07 20.94C8.07 20.41 8.5 19.98 9.04 19.98C9.57 19.98 10.01 20.41 10.01 20.94L10.01 38.1C10.01 38.63 9.57 39.05 9.04 39.05ZM46.7 39.98L43.63 39.98C41.9 39.98 40.5 38.59 40.5 36.89L40.5 23.07C40.5 21.37 41.9 19.98 43.63 19.98L46.7 19.98C47.44 19.98 48.2 20.11 49.01 20.38C49.05 20.39 49.08 20.41 49.11 20.42L50.55 21.09C50.59 21.11 50.63 21.13 50.67 21.15C52.76 22.5 54.01 24.76 54.01 27.21L54.01 32.75C54.01 36.73 50.73 39.98 46.7 39.98ZM43.63 21.9C42.97 21.9 42.44 22.43 42.44 23.07L42.44 36.89C42.44 37.53 42.97 38.06 43.63 38.06L46.7 38.06C49.66 38.06 52.07 35.68 52.07 32.75L52.07 27.21C52.07 25.43 51.17 23.79 49.67 22.8L48.34 22.18C47.75 21.99 47.22 21.9 46.7 21.9L43.63 21.9ZM44.98 39.05C44.44 39.05 44.01 38.63 44.01 38.1L44.01 20.94C44.01 20.41 44.44 19.98 44.98 19.98C45.51 19.98 45.95 20.41 45.95 20.94L45.95 38.1C45.95 38.63 45.51 39.05 44.98 39.05ZM30.35 53L25.69 53C23.55 53 21.81 51.27 21.81 49.15C21.81 47.04 23.55 45.31 25.69 45.31L30.35 45.31C32.49 45.31 34.23 47.04 34.23 49.15C34.23 51.27 32.49 53 30.35 53ZM25.69 47.23C24.62 47.23 23.75 48.09 23.75 49.15C23.75 50.22 24.62 51.08 25.69 51.08L30.35 51.08C31.42 51.08 32.29 50.22 32.29 49.15C32.29 48.09 31.42 47.23 30.35 47.23L25.69 47.23ZM36.86 50.11L33.94 50.11C33.41 50.11 32.97 49.68 32.97 49.15C32.97 48.62 33.41 48.2 33.94 48.2L36.86 48.2C37.54 48.2 38.2 47.91 38.77 47.38L48.95 37.84C49.34 37.48 49.95 37.5 50.32 37.88C50.68 38.26 50.67 38.87 50.28 39.24L40.1 48.77C39.18 49.64 38.03 50.11 36.86 50.11ZM27.91 40.65C27.37 40.65 26.94 40.22 26.94 39.69L26.94 35.84C26.94 35.31 27.37 34.88 27.91 34.88C28.44 34.88 28.88 35.31 28.88 35.84L28.88 39.69C28.88 40.22 28.44 40.65 27.91 40.65ZM34.26 43.12C34.01 43.12 33.76 43.03 33.58 42.84C33.2 42.47 33.2 41.86 33.58 41.49L36.33 38.76C36.71 38.39 37.32 38.39 37.7 38.76C38.08 39.14 38.08 39.74 37.7 40.12L34.95 42.84C34.76 43.03 34.51 43.12 34.26 43.12ZM21.66 43.12C21.42 43.12 21.17 43.03 20.98 42.84L18.22 40.12C17.85 39.74 17.85 39.14 18.22 38.76C18.6 38.39 19.22 38.39 19.59 38.76L22.35 41.49C22.73 41.86 22.73 42.47 22.35 42.84C22.16 43.03 21.91 43.12 21.66 43.12Z" /></svg>