<svg xmlns="http://www.w3.org/2000/svg" viewBox="0 0 60 70" width="60" height="70">
		<style>
		tspan { white-space:pre }
		@-webkit-keyframes squeeze-fadeOut {
			from {
				-webkit-transform: scale(1.0) rotate(0deg);
				transform: scale(1.0) rotate(0deg);
				-webkit-transform-origin: center center;
				transform-origin: center center;
				fill: rgba(31,169,151,1);
			}
			12.5%  {
			    -webkit-transform: scale(0.95) rotate(-7.5deg);
				transform: scale(0.95) rotate(-7.5deg);
				-webkit-transform-origin: center center;
				transform-origin: center center;
				fill: rgba(30,161,144,0.875);
			}
			25% {
				-webkit-transform: scale(0.9) rotate(-15deg);
				transform: scale(0.9) rotate(-15deg);
				-webkit-transform-origin: center center;
				transform-origin: center center;
				fill: rgba(28,153,137,0.75);
			}
			37.5% {
				-webkit-transform: scale(0.85) rotate(-7.5deg);
				transform: scale(0.85) rotate(-7.5deg);
				-webkit-transform-origin: center center;
				transform-origin: center center;
				fill: rgba(27,145,129,0.625);
			}
			50% {
				-webkit-transform: scale(0.8) rotate(0deg);
				transform: scale(0.8) rotate(0deg);
				-webkit-transform-origin: center center;
				transform-origin: center center;
				fill: rgba(25,136,122,0.5);
			}
			62.5% {
			    -webkit-transform: scale(0.85) rotate(7.5deg);
				transform: scale(0.85) rotate(7.5deg);
				-webkit-transform-origin: center center;
				transform-origin: center center;
				fill: rgba(24,129,115,0.375);
			}
			75% {
				-webkit-transform: scale(0.9) rotate(15deg);
				transform: scale(0.9) rotate(15deg);
				-webkit-transform-origin: center center;
				transform-origin: center center;
				fill: rgba(22,121,108,0.25);
			}
			87.5% {
				-webkit-transform: scale(0.95) rotate(7.5deg);
				transform: scale(0.95) rotate(7.5deg);
				-webkit-transform-origin: center center;
				transform-origin: center center;
				fill: rgba(21,112,100,0.125);
			}
			100% {
				-webkit-transform: scale(1.0) rotate(0deg);
				transform: scale(1.0) rotate(0deg);
				-webkit-transform-origin: center center;
				transform-origin: center center;
				fill: rgba(19,104,93,0);
			}
		}
		@keyframes squeeze-fadeOut {
			from {
				-webkit-transform: scale(1.0) rotate(0deg);
				transform: scale(1.0) rotate(0deg);
				-webkit-transform-origin: center center;
				transform-origin: center center;
				fill: rgba(31,169,151,1);
			}
			12.5%  {
			    -webkit-transform: scale(0.95) rotate(-7.5deg);
				transform: scale(0.95) rotate(-7.5deg);
				-webkit-transform-origin: center center;
				transform-origin: center center;
				fill: rgba(30,161,144,0.875);
			}
			25% {
				-webkit-transform: scale(0.9) rotate(-15deg);
				transform: scale(0.9) rotate(-15deg);
				-webkit-transform-origin: center center;
				transform-origin: center center;
				fill: rgba(28,153,137,0.75);
			}
			37.5% {
				-webkit-transform: scale(0.85) rotate(-7.5deg);
				transform: scale(0.85) rotate(-7.5deg);
				-webkit-transform-origin: center center;
				transform-origin: center center;
				fill: rgba(27,145,129,0.625);
			}
			50% {
				-webkit-transform: scale(0.8) rotate(0deg);
				transform: scale(0.8) rotate(0deg);
				-webkit-transform-origin: center center;
				transform-origin: center center;
				fill: rgba(25,136,122,0.5);
			}
			62.5% {
			    -webkit-transform: scale(0.85) rotate(7.5deg);
				transform: scale(0.85) rotate(7.5deg);
				-webkit-transform-origin: center center;
				transform-origin: center center;
				fill: rgba(24,129,115,0.375);
			}
			75% {
				-webkit-transform: scale(0.9) rotate(15deg);
				transform: scale(0.9) rotate(15deg);
				-webkit-transform-origin: center center;
				transform-origin: center center;
				fill: rgba(22,121,108,0.25);
			}
			87.5% {
				-webkit-transform: scale(0.95) rotate(7.5deg);
				transform: scale(0.95) rotate(7.5deg);
				-webkit-transform-origin: center center;
				transform-origin: center center;
				fill: rgba(21,112,100,0.125);
			}
			100% {
				-webkit-transform: scale(1.0) rotate(0deg);
				transform: scale(1.0) rotate(0deg);
				-webkit-transform-origin: center center;
				transform-origin: center center;
				fill: rgba(19,104,93,0);
			}
		}
		@-webkit-keyframes squeeze-fadeIn {
			from {
			    -webkit-transform: scale(1.0) rotate(0deg);
				transform: scale(1.0) rotate(0deg);
				-webkit-transform-origin: center center;
				transform-origin: center center;
				fill: rgba(31,169,151,0);
			}
			12.5%  {
				-webkit-transform: scale(0.95) rotate(-7.5deg);
				transform: scale(0.95) rotate(-7.5deg);
				-webkit-transform-origin: center center;
				transform-origin: center center;
				fill: rgba(30,161,144,0.125);
			}
			25% {
				-webkit-transform: scale(0.9) rotate(-15deg);
				transform: scale(0.9) rotate(-15deg);
				-webkit-transform-origin: center center;
				transform-origin: center center;
				fill: rgba(28,153,137,0.25);
			}
			37.5% {
				-webkit-transform: scale(0.85) rotate(-7.5deg);
				transform: scale(0.85) rotate(-7.5deg);
				-webkit-transform-origin: center center;
				transform-origin: center center;
				fill: rgba(27,145,129,0.375);
			}
			50% {
				-webkit-transform: scale(0.8) rotate(0deg);
				transform: scale(0.8) rotate(0deg);
				-webkit-transform-origin: center center;
				transform-origin: center center;
				fill: rgba(25,136,122,0.5);
			}
			62.5% {
				-webkit-transform: scale(0.85) rotate(7.5deg);
				transform: scale(0.85) rotate(7.5deg);
				-webkit-transform-origin: center center;
				transform-origin: center center;
				fill: rgba(24,129,115,0.625);
			}
			75% {
				-webkit-transform: scale(0.9) rotate(15deg);
				transform: scale(0.9) rotate(15deg);
				-webkit-transform-origin: center center;
				transform-origin: center center;
				fill: rgba(22,121,108,0.75);
			}
			87.5% {
				-webkit-transform: scale(0.95) rotate(7.5deg);
				transform: scale(0.95) rotate(7.5deg);
				-webkit-transform-origin: center center;
				transform-origin: center center;
				fill: rgba(21,112,100,0.875);
			}
			100% {
				-webkit-transform: scale(1.0) rotate(0deg);
				transform: scale(1.0) rotate(0deg);
				-webkit-transform-origin: center center;
				transform-origin: center center;
				fill: rgba(19,104,93,1);
			}
		}
		@keyframes squeeze-fadeIn {
			from {
			    -webkit-transform: scale(1.0) rotate(0deg);
				transform: scale(1.0) rotate(0deg);
				-webkit-transform-origin: center center;
				transform-origin: center center;
				fill: rgba(31,169,151,0);
			}
			12.5%  {
				-webkit-transform: scale(0.95) rotate(-7.5deg);
				transform: scale(0.95) rotate(-7.5deg);
				-webkit-transform-origin: center center;
				transform-origin: center center;
				fill: rgba(30,161,144,0.125);
			}
			25% {
				-webkit-transform: scale(0.9) rotate(-15deg);
				transform: scale(0.9) rotate(-15deg);
				-webkit-transform-origin: center center;
				transform-origin: center center;
				fill: rgba(28,153,137,0.25);
			}
			37.5% {
				-webkit-transform: scale(0.85) rotate(-7.5deg);
				transform: scale(0.85) rotate(-7.5deg);
				-webkit-transform-origin: center center;
				transform-origin: center center;
				fill: rgba(27,145,129,0.375);
			}
			50% {
				-webkit-transform: scale(0.8) rotate(0deg);
				transform: scale(0.8) rotate(0deg);
				-webkit-transform-origin: center center;
				transform-origin: center center;
				fill: rgba(25,136,122,0.5);
			}
			62.5% {
				-webkit-transform: scale(0.85) rotate(7.5deg);
				transform: scale(0.85) rotate(7.5deg);
				-webkit-transform-origin: center center;
				transform-origin: center center;
				fill: rgba(24,129,115,0.625);
			}
			75% {
				-webkit-transform: scale(0.9) rotate(15deg);
				transform: scale(0.9) rotate(15deg);
				-webkit-transform-origin: center center;
				transform-origin: center center;
				fill: rgba(22,121,108,0.75);
			}
			87.5% {
				-webkit-transform: scale(0.95) rotate(7.5deg);
				transform: scale(0.95) rotate(7.5deg);
				-webkit-transform-origin: center center;
				transform-origin: center center;
				fill: rgba(21,112,100,0.875);
			}
			100% {
				-webkit-transform: scale(1.0) rotate(0deg);
				transform: scale(1.0) rotate(0deg);
				-webkit-transform-origin: center center;
				transform-origin: center center;
				fill: rgba(19,104,93,1);
			}
		}
		.shp0, .shp1 {
			fill: rgba(31,169,151,1);
	        background-color: transparent;
	        -webkit-transition: all 1s ease-in-out;
	        -moz-transition: all 1s ease-in-out;
	        -ms-transition: all 1s ease-in-out;
	        -o-transition: all 1s ease-in-out;
	        transition: all 1s ease-in-out;
	        background-color: transparent;
		 }
		 .shp1 {
	        fill: rgba(31,169,151,0);
		 }
		 svg {
			-webkit-transition: all 1s ease-in-out;
	        -moz-transition: all 1s ease-in-out;
	        -ms-transition: all 1s ease-in-out;
	        -o-transition: all 1s ease-in-out;
	        transition: all 1s ease-in-out;	
		}
		svg:hover .shp0, svg:active .shp0 {
			fill: rgba(19,104,93,0);
			-webkit-animation: squeeze-fadeOut 1s ease-in-out;
			animation: squeeze-fadeOut 1s ease-in-out;
		}
		svg:hover .shp1, svg:active .shp1 {
			fill: rgba(19,104,93,1);
			-webkit-animation: squeeze-fadeIn 1s ease-in-out;
			animation: squeeze-fadeIn 1s ease-in-out;
		}

	</style>
	<path
     class="shp1"
     d="m 33.31,66.6 -30.54,0 C 1.3,66.6 0,65.32 0,63.86 L 0,3.74 C 0,3.06 0.31,2.36 0.86,1.82 1.39,1.29 2.07,0.99 2.77,0.99 l 31.13,0 c 0.68,0.05 1.43,0.28 1.94,0.78 L 49.2,14.98 c 0.52,0.5 0.82,1.22 0.82,1.95 l 0,24.64 c 0,0.71 -0.58,1.28 -1.29,1.28 -0.71,0 -1.29,-0.57 -1.29,-1.28 l 0,-24.64 c 0,-0.06 -0.03,-0.12 -0.06,-0.14 L 34.04,3.58 C 34.02,3.57 33.96,3.54 33.91,3.54 l 0,0 -31.14,0 C 2.72,3.56 2.6,3.69 2.58,3.77 l 0,60.09 c 0,0.07 0.13,0.19 0.2,0.19 l 30.53,0 c 0.72,0 1.29,0.57 1.29,1.28 0,0.7 -0.57,1.27 -1.29,1.27 z m 14.13,-48.34 -14.23,0 c -0.72,0 -1.29,-0.58 -1.29,-1.28 l 0,-14.08 c 0,-0.7 0.57,-1.27 1.29,-1.27 0.71,0 1.29,0.57 1.29,1.27 l 0,12.8 12.94,0 c 0.71,0 1.29,0.58 1.29,1.28 0,0.7 -0.58,1.28 -1.29,1.28 z m -28.43,2.49 -8.29,0 c -0.71,0 -1.29,-0.57 -1.29,-1.28 0,-0.7 0.58,-1.27 1.29,-1.27 l 8.29,0 c 0.71,0 1.29,0.57 1.29,1.27 0,0.71 -0.58,1.28 -1.29,1.28 z m 12.56,6.56 -21.09,0 c -0.72,0 -1.29,-0.57 -1.29,-1.28 0,-0.7 0.57,-1.27 1.29,-1.27 l 21.09,0 c 0.72,0 1.29,0.57 1.29,1.27 0,0.71 -0.57,1.28 -1.29,1.28 z m 0.188246,7.91 -21.354713,0 c -0.8005194,0 -1.4544652,-0.57 -1.4544652,-1.28 0,-0.7 0.6539458,-1.27 1.4544652,-1.27 l 21.354713,0 c 0.80052,0 1.454466,0.57 1.454466,1.27 0,0.71 -0.653946,1.28 -1.454466,1.28 z m -6.935299,7.16322 -14.440555,0 c -0.7628951,0 -1.366714,-0.57 -1.366714,-1.27 0,-0.71 0.6038902,-1.28 1.366714,-1.28 l 14.440555,0 c 0.752167,0 1.366714,0.57 1.366714,1.28 0,0.7 -0.614492,1.27 -1.366714,1.27 z M 45.63,70 41.81,70 c -1.79,0 -3.29,-1.22 -3.64,-2.88 -1.3,0.88 -3.4,0.69 -4.6,-0.49 l -2.71,-2.69 c -1.24,-1.28 -1.41,-3.15 -0.48,-4.58 -1.66,-0.28 -2.93,-1.79 -2.93,-3.57 l 0,-3.77 c 0,-1.77 1.23,-3.26 2.91,-3.6 -0.96,-1.3 -0.79,-3.28 0.5,-4.55 l 2.71,-2.69 c 1.3,-1.22 3.19,-1.39 4.63,-0.48 0.29,-1.63 1.81,-2.89 3.61,-2.89 l 3.82,0 c 1.78,0 3.29,1.21 3.64,2.88 1.3,-0.95 3.31,-0.78 4.59,0.49 l 2.71,2.68 c 1.27,1.2 1.46,3.12 0.49,4.59 1.66,0.28 2.93,1.78 2.93,3.57 l 0,3.77 c 0,1.77 -1.23,3.26 -2.91,3.6 0.96,1.29 0.79,3.28 -0.5,4.55 l -2.72,2.69 c -1.18,1.17 -3.2,1.39 -4.62,0.48 C 48.95,68.74 47.43,70 45.63,70 z m -6.54,-6.37 c 0.17,0 0.34,0.03 0.49,0.1 0.41,0.16 0.71,0.52 0.78,0.95 l 0.31,1.74 c 0.07,0.63 0.55,1.03 1.14,1.03 l 3.82,0 c 0.57,0 1.03,-0.38 1.09,-0.91 l 0.31,-1.85 c 0.08,-0.43 0.37,-0.79 0.78,-0.96 0.4,-0.17 0.87,-0.12 1.23,0.13 l 1.45,1 c 0.59,0.46 1.18,0.34 1.55,-0.03 l 2.72,-2.69 c 0.4,-0.4 0.46,-0.99 0.15,-1.36 l -1.12,-1.56 c -0.26,-0.36 -0.31,-0.82 -0.14,-1.23 0.17,-0.4 0.53,-0.69 0.97,-0.76 l 1.75,-0.31 c 0.64,-0.07 1.04,-0.54 1.04,-1.13 l 0,-3.77 c 0,-0.57 -0.38,-1.02 -0.91,-1.08 l -1.88,-0.31 c -0.43,-0.08 -0.8,-0.37 -0.97,-0.77 -0.17,-0.4 -0.12,-0.86 0.13,-1.22 l 1.01,-1.43 c 0.41,-0.53 0.39,-1.14 0,-1.52 -0.01,0 -0.02,-0.01 -0.03,-0.02 l -2.72,-2.69 c -0.4,-0.39 -1,-0.46 -1.37,-0.15 l -1.58,1.12 c -0.36,0.25 -0.83,0.3 -1.24,0.13 -0.4,-0.16 -0.7,-0.53 -0.77,-0.96 L 46.77,41.39 C 46.7,40.76 46.22,40.36 45.63,40.36 l -3.82,0 c -0.57,0 -1.03,0.38 -1.09,0.9 l -0.31,1.86 c -0.08,0.43 -0.37,0.79 -0.78,0.96 -0.4,0.17 -0.87,0.12 -1.23,-0.13 l -1.45,-1 C 36.44,42.56 35.8,42.6 35.37,43 l -2.69,2.67 c -0.4,0.39 -0.47,0.99 -0.15,1.35 l 1.12,1.57 c 0.26,0.36 0.31,0.82 0.14,1.22 -0.17,0.41 -0.53,0.7 -0.97,0.77 l -1.75,0.31 c -0.64,0.07 -1.04,0.54 -1.04,1.13 l 0,3.77 c 0,0.57 0.38,1.02 0.91,1.08 l 1.88,0.31 c 0.43,0.07 0.8,0.36 0.97,0.76 0.17,0.41 0.12,0.87 -0.13,1.23 l -1.01,1.43 c -0.39,0.5 -0.35,1.14 0.05,1.56 l 2.7,2.67 c 0.37,0.36 1.14,0.34 1.35,0.16 0.04,-0.03 0.07,-0.06 0.11,-0.09 l 1.49,-1.04 c 0.22,-0.15 0.48,-0.23 0.74,-0.23 z m 5.18,-2.39 c -4.09,0 -7.42,-3.29 -7.42,-7.34 0,-4.04 3.33,-7.33 7.42,-7.33 4.09,0 7.42,3.29 7.42,7.33 0,4.05 -3.33,7.34 -7.42,7.34 z m 0,-12.12 c -2.67,0 -4.84,2.14 -4.84,4.78 0,2.64 2.17,4.79 4.84,4.79 2.67,0 4.84,-2.15 4.84,-4.79 0,-2.64 -2.17,-4.78 -4.84,-4.78 z" />
	<path id="Shape 48" class="shp0" d="M33.31 66.6L2.77 66.6C1.3 66.6 0 65.32 0 63.86L0 3.74C0 3.06 0.31 2.36 0.86 1.82C1.39 1.29 2.07 0.99 2.77 0.99L33.9 0.99C34.58 1.04 35.33 1.27 35.84 1.77L49.2 14.98C49.72 15.48 50.02 16.2 50.02 16.93L50.02 41.57C50.02 42.28 49.44 42.85 48.73 42.85C48.02 42.85 47.44 42.28 47.44 41.57L47.44 16.93C47.44 16.87 47.41 16.81 47.38 16.79L34.04 3.58C34.02 3.57 33.96 3.54 33.91 3.54L33.91 3.54L2.77 3.54C2.72 3.56 2.6 3.69 2.58 3.77L2.58 63.86C2.58 63.93 2.71 64.05 2.78 64.05L33.31 64.05C34.03 64.05 34.6 64.62 34.6 65.33C34.6 66.03 34.03 66.6 33.31 66.6ZM47.44 18.26L33.21 18.26C32.49 18.26 31.92 17.68 31.92 16.98L31.92 2.9C31.92 2.2 32.49 1.63 33.21 1.63C33.92 1.63 34.5 2.2 34.5 2.9L34.5 15.7L47.44 15.7C48.15 15.7 48.73 16.28 48.73 16.98C48.73 17.68 48.15 18.26 47.44 18.26ZM25.01 20.75L16.72 20.75C16.01 20.75 15.43 20.18 15.43 19.47C15.43 18.77 16.01 18.2 16.72 18.2L25.01 18.2C25.72 18.2 26.3 18.77 26.3 19.47C26.3 20.18 25.72 20.75 25.01 20.75ZM31.57 27.31L10.48 27.31C9.76 27.31 9.19 26.74 9.19 26.03C9.19 25.33 9.76 24.76 10.48 24.76L31.57 24.76C32.29 24.76 32.86 25.33 32.86 26.03C32.86 26.74 32.29 27.31 31.57 27.31ZM32.66 35.22L13.72 35.22C13.01 35.22 12.43 34.65 12.43 33.94C12.43 33.24 13.01 32.67 13.72 32.67L32.66 32.67C33.37 32.67 33.95 33.24 33.95 33.94C33.95 34.65 33.37 35.22 32.66 35.22ZM23.12 43.79L9.49 43.79C8.77 43.79 8.2 43.22 8.2 42.52C8.2 41.81 8.77 41.24 9.49 41.24L23.12 41.24C23.83 41.24 24.41 41.81 24.41 42.52C24.41 43.22 23.83 43.79 23.12 43.79ZM45.63 70L41.81 70C40.02 70 38.52 68.78 38.17 67.12C36.87 68 34.77 67.81 33.57 66.63L30.86 63.94C29.62 62.66 29.45 60.79 30.38 59.36C28.72 59.08 27.45 57.57 27.45 55.79L27.45 52.02C27.45 50.25 28.68 48.76 30.36 48.42C29.4 47.12 29.57 45.14 30.86 43.87L33.57 41.18C34.87 39.96 36.76 39.79 38.2 40.7C38.49 39.07 40.01 37.81 41.81 37.81L45.63 37.81C47.41 37.81 48.92 39.02 49.27 40.69C50.57 39.74 52.58 39.91 53.86 41.18L56.57 43.86C57.84 45.06 58.03 46.98 57.06 48.45C58.72 48.73 59.99 50.23 59.99 52.02L59.99 55.79C59.99 57.56 58.76 59.05 57.08 59.39C58.04 60.68 57.87 62.67 56.58 63.94L53.86 66.63C52.68 67.8 50.66 68.02 49.24 67.11C48.95 68.74 47.43 70 45.63 70ZM39.09 63.63C39.26 63.63 39.43 63.66 39.58 63.73C39.99 63.89 40.29 64.25 40.36 64.68L40.67 66.42C40.74 67.05 41.22 67.45 41.81 67.45L45.63 67.45C46.2 67.45 46.66 67.07 46.72 66.54L47.03 64.69C47.11 64.26 47.4 63.9 47.81 63.73C48.21 63.56 48.68 63.61 49.04 63.86L50.49 64.86C51.08 65.32 51.67 65.2 52.04 64.83L54.76 62.14C55.16 61.74 55.22 61.15 54.91 60.78L53.79 59.22C53.53 58.86 53.48 58.4 53.65 57.99C53.82 57.59 54.18 57.3 54.62 57.23L56.37 56.92C57.01 56.85 57.41 56.38 57.41 55.79L57.41 52.02C57.41 51.45 57.03 51 56.5 50.94L54.62 50.63C54.19 50.55 53.82 50.26 53.65 49.86C53.48 49.46 53.53 49 53.78 48.64L54.79 47.21C55.2 46.68 55.18 46.07 54.79 45.69C54.78 45.69 54.77 45.68 54.76 45.67L52.04 42.98C51.64 42.59 51.04 42.52 50.67 42.83L49.09 43.95C48.73 44.2 48.26 44.25 47.85 44.08C47.45 43.92 47.15 43.55 47.08 43.12L46.77 41.39C46.7 40.76 46.22 40.36 45.63 40.36L41.81 40.36C41.24 40.36 40.78 40.74 40.72 41.26L40.41 43.12C40.33 43.55 40.04 43.91 39.63 44.08C39.23 44.25 38.76 44.2 38.4 43.95L36.95 42.95C36.44 42.56 35.8 42.6 35.37 43L32.68 45.67C32.28 46.06 32.21 46.66 32.53 47.02L33.65 48.59C33.91 48.95 33.96 49.41 33.79 49.81C33.62 50.22 33.26 50.51 32.82 50.58L31.07 50.89C30.43 50.96 30.03 51.43 30.03 52.02L30.03 55.79C30.03 56.36 30.41 56.81 30.94 56.87L32.82 57.18C33.25 57.25 33.62 57.54 33.79 57.94C33.96 58.35 33.91 58.81 33.66 59.17L32.65 60.6C32.26 61.1 32.3 61.74 32.7 62.16L35.4 64.83C35.77 65.19 36.54 65.17 36.75 64.99C36.79 64.96 36.82 64.93 36.86 64.9L38.35 63.86C38.57 63.71 38.83 63.63 39.09 63.63ZM44.27 61.24C40.18 61.24 36.85 57.95 36.85 53.9C36.85 49.86 40.18 46.57 44.27 46.57C48.36 46.57 51.69 49.86 51.69 53.9C51.69 57.95 48.36 61.24 44.27 61.24ZM44.27 49.12C41.6 49.12 39.43 51.26 39.43 53.9C39.43 56.54 41.6 58.69 44.27 58.69C46.94 58.69 49.11 56.54 49.11 53.9C49.11 51.26 46.94 49.12 44.27 49.12Z" />
</svg>