<svg xmlns="http://www.w3.org/2000/svg" viewBox="0 0 64 71" width="64" height="71">
	<style>
		tspan { white-space:pre }
		@-webkit-keyframes squeeze-fadeOut {
			from {
				-webkit-transform: scale(1.0) rotate(0deg);
				transform: scale(1.0) rotate(0deg);
				-webkit-transform-origin: center center;
				transform-origin: center center;
				fill: rgba(31,169,151,1);
			}
			12.5%  {
			    -webkit-transform: scale(0.95) rotate(-7.5deg);
				transform: scale(0.95) rotate(-7.5deg);
				-webkit-transform-origin: center center;
				transform-origin: center center;
				fill: rgba(30,161,144,0.875);
			}
			25% {
				-webkit-transform: scale(0.9) rotate(-15deg);
				transform: scale(0.9) rotate(-15deg);
				-webkit-transform-origin: center center;
				transform-origin: center center;
				fill: rgba(28,153,137,0.75);
			}
			37.5% {
				-webkit-transform: scale(0.85) rotate(-7.5deg);
				transform: scale(0.85) rotate(-7.5deg);
				-webkit-transform-origin: center center;
				transform-origin: center center;
				fill: rgba(27,145,129,0.625);
			}
			50% {
				-webkit-transform: scale(0.8) rotate(0deg);
				transform: scale(0.8) rotate(0deg);
				-webkit-transform-origin: center center;
				transform-origin: center center;
				fill: rgba(25,136,122,0.5);
			}
			62.5% {
			    -webkit-transform: scale(0.85) rotate(7.5deg);
				transform: scale(0.85) rotate(7.5deg);
				-webkit-transform-origin: center center;
				transform-origin: center center;
				fill: rgba(24,129,115,0.375);
			}
			75% {
				-webkit-transform: scale(0.9) rotate(15deg);
				transform: scale(0.9) rotate(15deg);
				-webkit-transform-origin: center center;
				transform-origin: center center;
				fill: rgba(22,121,108,0.25);
			}
			87.5% {
				-webkit-transform: scale(0.95) rotate(7.5deg);
				transform: scale(0.95) rotate(7.5deg);
				-webkit-transform-origin: center center;
				transform-origin: center center;
				fill: rgba(21,112,100,0.125);
			}
			100% {
				-webkit-transform: scale(1.0) rotate(0deg);
				transform: scale(1.0) rotate(0deg);
				-webkit-transform-origin: center center;
				transform-origin: center center;
				fill: rgba(19,104,93,0);
			}
		}
		@keyframes squeeze-fadeOut {
			from {
				-webkit-transform: scale(1.0) rotate(0deg);
				transform: scale(1.0) rotate(0deg);
				-webkit-transform-origin: center center;
				transform-origin: center center;
				fill: rgba(31,169,151,1);
			}
			12.5%  {
			    -webkit-transform: scale(0.95) rotate(-7.5deg);
				transform: scale(0.95) rotate(-7.5deg);
				-webkit-transform-origin: center center;
				transform-origin: center center;
				fill: rgba(30,161,144,0.875);
			}
			25% {
				-webkit-transform: scale(0.9) rotate(-15deg);
				transform: scale(0.9) rotate(-15deg);
				-webkit-transform-origin: center center;
				transform-origin: center center;
				fill: rgba(28,153,137,0.75);
			}
			37.5% {
				-webkit-transform: scale(0.85) rotate(-7.5deg);
				transform: scale(0.85) rotate(-7.5deg);
				-webkit-transform-origin: center center;
				transform-origin: center center;
				fill: rgba(27,145,129,0.625);
			}
			50% {
				-webkit-transform: scale(0.8) rotate(0deg);
				transform: scale(0.8) rotate(0deg);
				-webkit-transform-origin: center center;
				transform-origin: center center;
				fill: rgba(25,136,122,0.5);
			}
			62.5% {
			    -webkit-transform: scale(0.85) rotate(7.5deg);
				transform: scale(0.85) rotate(7.5deg);
				-webkit-transform-origin: center center;
				transform-origin: center center;
				fill: rgba(24,129,115,0.375);
			}
			75% {
				-webkit-transform: scale(0.9) rotate(15deg);
				transform: scale(0.9) rotate(15deg);
				-webkit-transform-origin: center center;
				transform-origin: center center;
				fill: rgba(22,121,108,0.25);
			}
			87.5% {
				-webkit-transform: scale(0.95) rotate(7.5deg);
				transform: scale(0.95) rotate(7.5deg);
				-webkit-transform-origin: center center;
				transform-origin: center center;
				fill: rgba(21,112,100,0.125);
			}
			100% {
				-webkit-transform: scale(1.0) rotate(0deg);
				transform: scale(1.0) rotate(0deg);
				-webkit-transform-origin: center center;
				transform-origin: center center;
				fill: rgba(19,104,93,0);
			}
		}
		@-webkit-keyframes squeeze-fadeIn {
			from {
			    -webkit-transform: scale(1.0) rotate(0deg);
				transform: scale(1.0) rotate(0deg);
				-webkit-transform-origin: center center;
				transform-origin: center center;
				fill: rgba(31,169,151,0);
			}
			12.5%  {
				-webkit-transform: scale(0.95) rotate(-7.5deg);
				transform: scale(0.95) rotate(-7.5deg);
				-webkit-transform-origin: center center;
				transform-origin: center center;
				fill: rgba(30,161,144,0.125);
			}
			25% {
				-webkit-transform: scale(0.9) rotate(-15deg);
				transform: scale(0.9) rotate(-15deg);
				-webkit-transform-origin: center center;
				transform-origin: center center;
				fill: rgba(28,153,137,0.25);
			}
			37.5% {
				-webkit-transform: scale(0.85) rotate(-7.5deg);
				transform: scale(0.85) rotate(-7.5deg);
				-webkit-transform-origin: center center;
				transform-origin: center center;
				fill: rgba(27,145,129,0.375);
			}
			50% {
				-webkit-transform: scale(0.8) rotate(0deg);
				transform: scale(0.8) rotate(0deg);
				-webkit-transform-origin: center center;
				transform-origin: center center;
				fill: rgba(25,136,122,0.5);
			}
			62.5% {
				-webkit-transform: scale(0.85) rotate(7.5deg);
				transform: scale(0.85) rotate(7.5deg);
				-webkit-transform-origin: center center;
				transform-origin: center center;
				fill: rgba(24,129,115,0.625);
			}
			75% {
				-webkit-transform: scale(0.9) rotate(15deg);
				transform: scale(0.9) rotate(15deg);
				-webkit-transform-origin: center center;
				transform-origin: center center;
				fill: rgba(22,121,108,0.75);
			}
			87.5% {
				-webkit-transform: scale(0.95) rotate(7.5deg);
				transform: scale(0.95) rotate(7.5deg);
				-webkit-transform-origin: center center;
				transform-origin: center center;
				fill: rgba(21,112,100,0.875);
			}
			100% {
				-webkit-transform: scale(1.0) rotate(0deg);
				transform: scale(1.0) rotate(0deg);
				-webkit-transform-origin: center center;
				transform-origin: center center;
				fill: rgba(19,104,93,1);
			}
		}
		@keyframes squeeze-fadeIn {
			from {
			    -webkit-transform: scale(1.0) rotate(0deg);
				transform: scale(1.0) rotate(0deg);
				-webkit-transform-origin: center center;
				transform-origin: center center;
				fill: rgba(31,169,151,0);
			}
			12.5%  {
				-webkit-transform: scale(0.95) rotate(-7.5deg);
				transform: scale(0.95) rotate(-7.5deg);
				-webkit-transform-origin: center center;
				transform-origin: center center;
				fill: rgba(30,161,144,0.125);
			}
			25% {
				-webkit-transform: scale(0.9) rotate(-15deg);
				transform: scale(0.9) rotate(-15deg);
				-webkit-transform-origin: center center;
				transform-origin: center center;
				fill: rgba(28,153,137,0.25);
			}
			37.5% {
				-webkit-transform: scale(0.85) rotate(-7.5deg);
				transform: scale(0.85) rotate(-7.5deg);
				-webkit-transform-origin: center center;
				transform-origin: center center;
				fill: rgba(27,145,129,0.375);
			}
			50% {
				-webkit-transform: scale(0.8) rotate(0deg);
				transform: scale(0.8) rotate(0deg);
				-webkit-transform-origin: center center;
				transform-origin: center center;
				fill: rgba(25,136,122,0.5);
			}
			62.5% {
				-webkit-transform: scale(0.85) rotate(7.5deg);
				transform: scale(0.85) rotate(7.5deg);
				-webkit-transform-origin: center center;
				transform-origin: center center;
				fill: rgba(24,129,115,0.625);
			}
			75% {
				-webkit-transform: scale(0.9) rotate(15deg);
				transform: scale(0.9) rotate(15deg);
				-webkit-transform-origin: center center;
				transform-origin: center center;
				fill: rgba(22,121,108,0.75);
			}
			87.5% {
				-webkit-transform: scale(0.95) rotate(7.5deg);
				transform: scale(0.95) rotate(7.5deg);
				-webkit-transform-origin: center center;
				transform-origin: center center;
				fill: rgba(21,112,100,0.875);
			}
			100% {
				-webkit-transform: scale(1.0) rotate(0deg);
				transform: scale(1.0) rotate(0deg);
				-webkit-transform-origin: center center;
				transform-origin: center center;
				fill: rgba(19,104,93,1);
			}
		}
		.shp0, .shp1 {
			fill: rgba(31,169,151,1);
	        background-color: transparent;
	        -webkit-transition: all 1s ease-in-out;
	        -moz-transition: all 1s ease-in-out;
	        -ms-transition: all 1s ease-in-out;
	        -o-transition: all 1s ease-in-out;
	        transition: all 1s ease-in-out;
	        background-color: transparent;
		 }
		 .shp1 {
	        fill: rgba(31,169,151,0);
		 }
		 svg {
			-webkit-transition: all 1s ease-in-out;
	        -moz-transition: all 1s ease-in-out;
	        -ms-transition: all 1s ease-in-out;
	        -o-transition: all 1s ease-in-out;
	        transition: all 1s ease-in-out;	
		}
		svg:hover .shp0, svg:active .shp0 {
			fill: rgba(19,104,93,0);
			-webkit-animation: squeeze-fadeOut 1s ease-in-out;
			animation: squeeze-fadeOut 1s ease-in-out;
		}
		svg:hover .shp1, svg:active .shp1 {
			fill: rgba(19,104,93,1);
			-webkit-animation: squeeze-fadeIn 1s ease-in-out;
			animation: squeeze-fadeIn 1s ease-in-out;
		}

	</style>
<path id="Shape 56" class="shp0" d="M34.4 69.83L2.87 69.83C1.35 69.83 0.01 68.48 0.01 66.95L0.01 3.86C0.01 3.15 0.33 2.42 0.89 1.85C1.45 1.29 2.15 0.99 2.87 0.99L35.01 0.99C35.76 1.05 36.47 1.28 37.01 1.8L50.8 15.66C51.33 16.19 51.64 16.94 51.64 17.71L51.64 43.57C51.64 44.3 51.05 44.9 50.31 44.9C49.57 44.9 48.98 44.3 48.98 43.57L48.98 17.71C48.98 17.66 48.95 17.59 48.92 17.56L35.14 3.7C35.12 3.69 35.06 3.66 35.02 3.66L35.02 3.66L2.87 3.66C2.82 3.68 2.69 3.82 2.67 3.9L2.67 66.95C2.68 67.02 2.81 67.15 2.87 67.15L34.4 67.15C35.13 67.15 35.73 67.75 35.73 68.49C35.73 69.23 35.13 69.83 34.4 69.83ZM27.66 24.34L19.11 24.34C18.37 24.34 17.78 23.75 17.78 23.01C17.78 22.27 18.37 21.67 19.11 21.67L27.66 21.67C28.4 21.67 28.99 22.27 28.99 23.01C28.99 23.75 28.4 24.34 27.66 24.34ZM34.44 31.23L12.66 31.23C11.92 31.23 11.33 30.63 11.33 29.89C11.33 29.15 11.92 28.55 12.66 28.55L34.44 28.55C35.17 28.55 35.77 29.15 35.77 29.89C35.77 30.63 35.17 31.23 34.44 31.23ZM35.55 39.53L16.01 39.53C15.28 39.53 14.68 38.93 14.68 38.19C14.68 37.45 15.28 36.85 16.01 36.85L35.55 36.85C36.29 36.85 36.88 37.45 36.88 38.19C36.88 38.93 36.29 39.53 35.55 39.53ZM25.71 48.52L11.64 48.52C10.9 48.52 10.31 47.92 10.31 47.19C10.31 46.45 10.9 45.85 11.64 45.85L25.71 45.85C26.44 45.85 27.04 46.45 27.04 47.19C27.04 47.92 26.44 48.52 25.71 48.52ZM39.93 70.01C38.54 70.01 37.37 68.87 37.37 67.52C37.37 67.22 37.43 66.96 37.48 66.76L39.32 60.21C39.43 59.8 39.7 59.41 39.91 59.16L53.73 45.3C54.39 44.64 55.19 44.3 56.06 44.3C57.02 44.3 57.87 44.66 58.59 45.39L62.03 48.85C62.03 48.85 62.03 48.85 62.03 48.85C62.67 49.5 63 50.34 63 51.31C63 51.36 63 51.42 62.99 51.47C62.89 52.33 62.55 53.04 61.98 53.6L48.23 67.41C47.86 67.78 47.44 67.93 47.12 68.02L40.66 69.91C40.43 69.98 40.19 70.01 39.93 70.01ZM56.06 46.97C55.95 46.97 55.81 47 55.61 47.19L41.88 60.96C41.88 60.96 41.85 61.02 41.85 61.02L40.1 67.28L46.38 65.45C46.41 65.44 46.43 65.44 46.43 65.44L60.1 51.71C60.19 51.62 60.29 51.49 60.34 51.22C60.32 50.95 60.22 50.82 60.15 50.74L56.7 47.28C56.45 47.03 56.26 46.97 56.06 46.97ZM57.53 56.6C57.19 56.6 56.85 56.47 56.59 56.21L50.52 50.11C50 49.59 50 48.74 50.52 48.22C51.04 47.7 51.88 47.7 52.4 48.22L58.47 54.32C58.99 54.84 58.99 55.69 58.47 56.21C58.21 56.47 57.87 56.6 57.53 56.6ZM48.93 19.39L34.24 19.39C33.5 19.39 32.91 18.79 32.91 18.05L32.91 3.28C32.91 2.54 33.5 1.94 34.24 1.94C34.97 1.94 35.57 2.54 35.57 3.28L35.57 16.71L48.93 16.71C49.66 16.71 50.26 17.31 50.26 18.05C50.26 18.79 49.66 19.39 48.93 19.39Z" />
<path
     id="Shape 56-1"
     class="shp1"
     d="m 40.4,69.83 -37.53,0 c -1.52,0 -2.86,-1.35 -2.86,-2.88 l 0,-63.09 C 0.01,3.15 0.33,2.42 0.89,1.85 1.45,1.29 2.15,0.99 2.87,0.99 l 32.14,0 c 0.75,0.06 1.46,0.29 2,0.81 L 50.8,15.66 c 0.53,0.53 0.84,1.28 0.84,2.05 l 0,33.86 c 0,0.73 -0.59,1.33 -1.33,1.33 -0.74,0 -1.33,-0.6 -1.33,-1.33 l 0,-33.86 c 0,-0.05 -0.03,-0.12 -0.06,-0.15 L 35.14,3.7 C 35.12,3.69 35.06,3.66 35.02,3.66 l 0,0 -32.15,0 C 2.82,3.68 2.69,3.82 2.67,3.9 l 0,63.05 c 0.01,0.07 0.14,0.2 0.2,0.2 l 37.53,0 c 0.73,0 1.33,0.6 1.33,1.34 0,0.74 -0.6,1.34 -1.33,1.34 z m 8.53,-50.44 -14.69,0 c -0.74,0 -1.33,-0.6 -1.33,-1.34 l 0,-14.77 c 0,-0.74 0.59,-1.34 1.33,-1.34 0.73,0 1.33,0.6 1.33,1.34 l 0,13.43 13.36,0 c 0.73,0 1.33,0.6 1.33,1.34 0,0.74 -0.6,1.34 -1.33,1.34 z" />
  <path
     id="Shape 64-1"
     class="shp1"
     d="m 48.204947,70.06611 c -0.578579,0 -1.157184,-0.299883 -1.615227,-0.866333 L 39.670759,60.703043 C 38.658224,59.470185 38.5859,57.404312 39.50209,56.03817 c 0.891974,-1.366141 2.434902,-1.466102 3.423325,-0.233242 l 5.1832,6.364218 10.511033,-14.361143 c 0.940198,-1.299502 2.483114,-1.299502 3.447437,0 0.940199,1.266178 0.940199,3.36537 0,4.664872 l -12.126272,16.59362 c -0.482169,0.66641 -1.108972,0.999615 -1.735788,0.999615 z" />
  <path
     d="m 36.80586,54.339624 -23.394121,0 c -0.740688,0 -1.331237,-0.491287 -1.331237,-1.097206 0,-0.605919 0.590549,-1.097205 1.331237,-1.097205 l 23.394121,0 c 0.73068,0 1.33124,0.491286 1.33124,1.097205 0,0.605919 -0.60056,1.097206 -1.33124,1.097206 z"
     class="shp1"
     id="Shape 56-3" />
  <path
     d="m 36.74925,47.543401 -23.394124,0 c -0.740689,0 -1.331237,-0.491286 -1.331237,-1.097205 0,-0.60592 0.590548,-1.097206 1.331237,-1.097206 l 23.394124,0 c 0.73068,0 1.33123,0.491286 1.33123,1.097206 0,0.605919 -0.60055,1.097205 -1.33123,1.097205 z"
     class="shp1"
     id="Shape 56-3-6" />
  <path
     d="m 36.68122,40.644677 -23.394125,0 c -0.740689,0 -1.331237,-0.491286 -1.331237,-1.097205 0,-0.60592 0.590548,-1.097206 1.331237,-1.097206 l 23.394125,0 c 0.73068,0 1.33123,0.491286 1.33123,1.097206 0,0.605919 -0.60055,1.097205 -1.33123,1.097205 z"
     class="shp1"
     id="Shape 56-3-6-7" />
  <path
     d="m 36.47348,33.103137 -23.394123,0 c -0.740688,0 -1.331237,-0.491286 -1.331237,-1.097205 0,-0.60592 0.590549,-1.097206 1.331237,-1.097206 l 23.394123,0 c 0.73068,0 1.33124,0.491286 1.33124,1.097206 0,0.605919 -0.60056,1.097205 -1.33124,1.097205 z"
     class="shp1"
     id="Shape 56-3-6-7-5" />
  <path
     d="m 36.26574,26.34421 -23.39412,0 c -0.740688,0 -1.331237,-0.491286 -1.331237,-1.097205 0,-0.60592 0.590549,-1.097206 1.331237,-1.097206 l 23.39412,0 c 0.73068,0 1.33124,0.491286 1.33124,1.097206 0,0.605919 -0.60056,1.097205 -1.33124,1.097205 z"
     class="shp1"
     id="Shape 56-3-6-7-3"/>
</svg>