<svg xmlns="http://www.w3.org/2000/svg" viewBox="0 0 53 49" width="53" height="49">
	<style>
		tspan { white-space:pre }
		@-webkit-keyframes squeeze-fadeOut {
			from {
				-webkit-transform: scale(1.0) rotate(0deg);
				transform: scale(1.0) rotate(0deg);
				-webkit-transform-origin: center center;
				transform-origin: center center;
				fill: rgba(31,169,151,1);
			}
			12.5%  {
			    -webkit-transform: scale(0.95) rotate(-7.5deg);
				transform: scale(0.95) rotate(-7.5deg);
				-webkit-transform-origin: center center;
				transform-origin: center center;
				fill: rgba(30,161,144,0.875);
			}
			25% {
				-webkit-transform: scale(0.9) rotate(-15deg);
				transform: scale(0.9) rotate(-15deg);
				-webkit-transform-origin: center center;
				transform-origin: center center;
				fill: rgba(28,153,137,0.75);
			}
			37.5% {
				-webkit-transform: scale(0.85) rotate(-7.5deg);
				transform: scale(0.85) rotate(-7.5deg);
				-webkit-transform-origin: center center;
				transform-origin: center center;
				fill: rgba(27,145,129,0.625);
			}
			50% {
				-webkit-transform: scale(0.8) rotate(0deg);
				transform: scale(0.8) rotate(0deg);
				-webkit-transform-origin: center center;
				transform-origin: center center;
				fill: rgba(25,136,122,0.5);
			}
			62.5% {
			    -webkit-transform: scale(0.85) rotate(7.5deg);
				transform: scale(0.85) rotate(7.5deg);
				-webkit-transform-origin: center center;
				transform-origin: center center;
				fill: rgba(24,129,115,0.375);
			}
			75% {
				-webkit-transform: scale(0.9) rotate(15deg);
				transform: scale(0.9) rotate(15deg);
				-webkit-transform-origin: center center;
				transform-origin: center center;
				fill: rgba(22,121,108,0.25);
			}
			87.5% {
				-webkit-transform: scale(0.95) rotate(7.5deg);
				transform: scale(0.95) rotate(7.5deg);
				-webkit-transform-origin: center center;
				transform-origin: center center;
				fill: rgba(21,112,100,0.125);
			}
			100% {
				-webkit-transform: scale(1.0) rotate(0deg);
				transform: scale(1.0) rotate(0deg);
				-webkit-transform-origin: center center;
				transform-origin: center center;
				fill: rgba(19,104,93,0);
			}
		}
		@keyframes squeeze-fadeOut {
			from {
				-webkit-transform: scale(1.0) rotate(0deg);
				transform: scale(1.0) rotate(0deg);
				-webkit-transform-origin: center center;
				transform-origin: center center;
				fill: rgba(31,169,151,1);
			}
			12.5%  {
			    -webkit-transform: scale(0.95) rotate(-7.5deg);
				transform: scale(0.95) rotate(-7.5deg);
				-webkit-transform-origin: center center;
				transform-origin: center center;
				fill: rgba(30,161,144,0.875);
			}
			25% {
				-webkit-transform: scale(0.9) rotate(-15deg);
				transform: scale(0.9) rotate(-15deg);
				-webkit-transform-origin: center center;
				transform-origin: center center;
				fill: rgba(28,153,137,0.75);
			}
			37.5% {
				-webkit-transform: scale(0.85) rotate(-7.5deg);
				transform: scale(0.85) rotate(-7.5deg);
				-webkit-transform-origin: center center;
				transform-origin: center center;
				fill: rgba(27,145,129,0.625);
			}
			50% {
				-webkit-transform: scale(0.8) rotate(0deg);
				transform: scale(0.8) rotate(0deg);
				-webkit-transform-origin: center center;
				transform-origin: center center;
				fill: rgba(25,136,122,0.5);
			}
			62.5% {
			    -webkit-transform: scale(0.85) rotate(7.5deg);
				transform: scale(0.85) rotate(7.5deg);
				-webkit-transform-origin: center center;
				transform-origin: center center;
				fill: rgba(24,129,115,0.375);
			}
			75% {
				-webkit-transform: scale(0.9) rotate(15deg);
				transform: scale(0.9) rotate(15deg);
				-webkit-transform-origin: center center;
				transform-origin: center center;
				fill: rgba(22,121,108,0.25);
			}
			87.5% {
				-webkit-transform: scale(0.95) rotate(7.5deg);
				transform: scale(0.95) rotate(7.5deg);
				-webkit-transform-origin: center center;
				transform-origin: center center;
				fill: rgba(21,112,100,0.125);
			}
			100% {
				-webkit-transform: scale(1.0) rotate(0deg);
				transform: scale(1.0) rotate(0deg);
				-webkit-transform-origin: center center;
				transform-origin: center center;
				fill: rgba(19,104,93,0);
			}
		}
		@-webkit-keyframes squeeze-fadeIn {
			from {
			    -webkit-transform: scale(1.0) rotate(0deg);
				transform: scale(1.0) rotate(0deg);
				-webkit-transform-origin: center center;
				transform-origin: center center;
				fill: rgba(31,169,151,0);
			}
			12.5%  {
				-webkit-transform: scale(0.95) rotate(-7.5deg);
				transform: scale(0.95) rotate(-7.5deg);
				-webkit-transform-origin: center center;
				transform-origin: center center;
				fill: rgba(30,161,144,0.125);
			}
			25% {
				-webkit-transform: scale(0.9) rotate(-15deg);
				transform: scale(0.9) rotate(-15deg);
				-webkit-transform-origin: center center;
				transform-origin: center center;
				fill: rgba(28,153,137,0.25);
			}
			37.5% {
				-webkit-transform: scale(0.85) rotate(-7.5deg);
				transform: scale(0.85) rotate(-7.5deg);
				-webkit-transform-origin: center center;
				transform-origin: center center;
				fill: rgba(27,145,129,0.375);
			}
			50% {
				-webkit-transform: scale(0.8) rotate(0deg);
				transform: scale(0.8) rotate(0deg);
				-webkit-transform-origin: center center;
				transform-origin: center center;
				fill: rgba(25,136,122,0.5);
			}
			62.5% {
				-webkit-transform: scale(0.85) rotate(7.5deg);
				transform: scale(0.85) rotate(7.5deg);
				-webkit-transform-origin: center center;
				transform-origin: center center;
				fill: rgba(24,129,115,0.625);
			}
			75% {
				-webkit-transform: scale(0.9) rotate(15deg);
				transform: scale(0.9) rotate(15deg);
				-webkit-transform-origin: center center;
				transform-origin: center center;
				fill: rgba(22,121,108,0.75);
			}
			87.5% {
				-webkit-transform: scale(0.95) rotate(7.5deg);
				transform: scale(0.95) rotate(7.5deg);
				-webkit-transform-origin: center center;
				transform-origin: center center;
				fill: rgba(21,112,100,0.875);
			}
			100% {
				-webkit-transform: scale(1.0) rotate(0deg);
				transform: scale(1.0) rotate(0deg);
				-webkit-transform-origin: center center;
				transform-origin: center center;
				fill: rgba(19,104,93,1);
			}
		}
		@keyframes squeeze-fadeIn {
			from {
			    -webkit-transform: scale(1.0) rotate(0deg);
				transform: scale(1.0) rotate(0deg);
				-webkit-transform-origin: center center;
				transform-origin: center center;
				fill: rgba(31,169,151,0);
			}
			12.5%  {
				-webkit-transform: scale(0.95) rotate(-7.5deg);
				transform: scale(0.95) rotate(-7.5deg);
				-webkit-transform-origin: center center;
				transform-origin: center center;
				fill: rgba(30,161,144,0.125);
			}
			25% {
				-webkit-transform: scale(0.9) rotate(-15deg);
				transform: scale(0.9) rotate(-15deg);
				-webkit-transform-origin: center center;
				transform-origin: center center;
				fill: rgba(28,153,137,0.25);
			}
			37.5% {
				-webkit-transform: scale(0.85) rotate(-7.5deg);
				transform: scale(0.85) rotate(-7.5deg);
				-webkit-transform-origin: center center;
				transform-origin: center center;
				fill: rgba(27,145,129,0.375);
			}
			50% {
				-webkit-transform: scale(0.8) rotate(0deg);
				transform: scale(0.8) rotate(0deg);
				-webkit-transform-origin: center center;
				transform-origin: center center;
				fill: rgba(25,136,122,0.5);
			}
			62.5% {
				-webkit-transform: scale(0.85) rotate(7.5deg);
				transform: scale(0.85) rotate(7.5deg);
				-webkit-transform-origin: center center;
				transform-origin: center center;
				fill: rgba(24,129,115,0.625);
			}
			75% {
				-webkit-transform: scale(0.9) rotate(15deg);
				transform: scale(0.9) rotate(15deg);
				-webkit-transform-origin: center center;
				transform-origin: center center;
				fill: rgba(22,121,108,0.75);
			}
			87.5% {
				-webkit-transform: scale(0.95) rotate(7.5deg);
				transform: scale(0.95) rotate(7.5deg);
				-webkit-transform-origin: center center;
				transform-origin: center center;
				fill: rgba(21,112,100,0.875);
			}
			100% {
				-webkit-transform: scale(1.0) rotate(0deg);
				transform: scale(1.0) rotate(0deg);
				-webkit-transform-origin: center center;
				transform-origin: center center;
				fill: rgba(19,104,93,1);
			}
		}
		.shp0, .shp1 {
			fill: rgba(31,169,151,1);
	        background-color: transparent;
	        -webkit-transition: all 1s ease-in-out;
	        -moz-transition: all 1s ease-in-out;
	        -ms-transition: all 1s ease-in-out;
	        -o-transition: all 1s ease-in-out;
	        transition: all 1s ease-in-out;
	        background-color: transparent;
		 }
		 .shp1 {
	        fill: rgba(31,169,151,0);
		 }
		 svg {
			-webkit-transition: all 1s ease-in-out;
	        -moz-transition: all 1s ease-in-out;
	        -ms-transition: all 1s ease-in-out;
	        -o-transition: all 1s ease-in-out;
	        transition: all 1s ease-in-out;	
		}
		svg:hover .shp0, svg:active .shp0 {
			fill: rgba(19,104,93,0);
			-webkit-animation: squeeze-fadeOut 1s ease-in-out;
			animation: squeeze-fadeOut 1s ease-in-out;
		}
		svg:hover .shp1, svg:active .shp1 {
			fill: rgba(19,104,93,1);
			-webkit-animation: squeeze-fadeIn 1s ease-in-out;
			animation: squeeze-fadeIn 1s ease-in-out;
		}

	</style>
<path id="Shape 59" class="shp0" d="M3.75 49C3.59 49 3.42 48.95 3.27 48.86C2.85 48.59 2.72 48.04 2.99 47.61L7.17 40.97C7.44 40.54 8 40.42 8.42 40.68C8.84 40.95 8.97 41.5 8.71 41.92L4.52 48.57C4.35 48.85 4.06 49 3.75 49ZM41.82 49C41.51 49 41.22 48.85 41.05 48.57L36.86 41.92C36.6 41.5 36.73 40.95 37.15 40.68C37.57 40.42 38.13 40.54 38.4 40.97L42.58 47.61C42.85 48.04 42.72 48.59 42.3 48.86C42.15 48.95 41.98 49 41.82 49ZM23.4 47.39C21.1 47.39 18.79 47.03 16.54 46.31C10.85 44.5 6.21 40.58 3.48 35.29C0.75 30 0.25 23.96 2.08 18.3C3.91 12.64 7.84 8.02 13.16 5.3C20.91 1.34 30.35 2.24 37.21 7.6C37.6 7.91 37.67 8.47 37.36 8.87C37.05 9.26 36.48 9.33 36.09 9.02C29.79 4.09 21.11 3.26 13.98 6.91C9.1 9.41 5.48 13.65 3.81 18.85C2.13 24.06 2.58 29.6 5.09 34.46C7.6 39.33 11.87 42.93 17.09 44.6C22.32 46.27 27.89 45.81 32.77 43.31C37.66 40.82 41.27 36.57 42.95 31.37C44.63 26.16 44.17 20.62 41.66 15.76C41.43 15.31 41.61 14.77 42.06 14.54C42.5 14.31 43.05 14.49 43.27 14.93C46.01 20.22 46.5 26.26 44.68 31.92C42.85 37.58 38.92 42.2 33.6 44.92C30.39 46.56 26.91 47.39 23.4 47.39ZM23.4 41.4C17.21 41.4 11.28 37.89 8.52 31.94C6.69 27.98 6.51 23.56 8.02 19.48C9.53 15.39 12.55 12.14 16.52 10.32C21.73 7.92 27.91 8.45 32.64 11.68C33.06 11.96 33.16 12.52 32.88 12.93C32.6 13.34 32.03 13.45 31.62 13.16C27.41 10.29 21.91 9.83 17.28 11.95C13.75 13.57 11.07 16.47 9.72 20.1C8.38 23.73 8.53 27.67 10.16 31.18C13.52 38.43 22.19 41.62 29.48 38.27C36.76 34.92 39.96 26.29 36.59 19.04C36.39 18.59 36.58 18.05 37.04 17.84C37.5 17.63 38.03 17.83 38.24 18.28C42.02 26.44 38.43 36.14 30.24 39.91C28.02 40.92 25.69 41.4 23.4 41.4ZM23.36 35.66C21.58 35.66 19.82 35.21 18.23 34.33C15.75 32.96 13.96 30.71 13.19 28C12.41 25.29 12.74 22.44 14.12 19.98C15.5 17.52 17.75 15.74 20.48 14.97C23.11 14.22 25.89 14.51 28.31 15.78C28.76 16.01 28.93 16.55 28.69 16.99C28.46 17.43 27.91 17.6 27.47 17.37C25.46 16.32 23.16 16.08 20.97 16.7C18.72 17.34 16.85 18.82 15.7 20.86C14.56 22.9 14.29 25.26 14.93 27.51C15.57 29.75 17.06 31.61 19.11 32.75C21.16 33.89 23.53 34.16 25.78 33.52C28.04 32.88 29.91 31.4 31.05 29.36C32.19 27.32 32.47 24.96 31.83 22.72C31.69 22.24 31.97 21.74 32.45 21.6C32.93 21.47 33.43 21.74 33.57 22.22C34.34 24.93 34.01 27.78 32.64 30.24C31.26 32.7 29 34.48 26.28 35.25C25.32 35.53 24.34 35.66 23.36 35.66ZM23.39 30.72C23.05 30.72 22.7 30.69 22.35 30.63C19.29 30.06 17.27 27.13 17.84 24.08C18.11 22.61 18.95 21.33 20.19 20.48C21.43 19.64 22.93 19.32 24.41 19.59C24.9 19.68 25.22 20.15 25.13 20.64C25.04 21.13 24.57 21.46 24.08 21.37C23.07 21.18 22.06 21.39 21.21 21.97C20.37 22.55 19.8 23.41 19.62 24.41C19.23 26.48 20.61 28.47 22.68 28.85C23.68 29.04 24.7 28.83 25.54 28.25C26.39 27.67 26.95 26.81 27.14 25.81C27.23 25.32 27.7 24.99 28.2 25.08C28.69 25.17 29.01 25.65 28.92 26.14C28.65 27.61 27.81 28.89 26.57 29.74C25.62 30.39 24.52 30.72 23.39 30.72ZM47.15 11.78C47.09 11.78 47.03 11.78 46.98 11.77L42.87 11.36L41.86 11.36L41.86 11.36C41.49 11.36 41.14 11.2 40.91 10.91C40.67 10.62 40.58 10.25 40.66 9.88L40.88 8.87L41.29 4.83C41.33 4.33 41.6 3.86 42.01 3.55L46.46 0.35C46.75 0.14 47.12 0.02 47.49 0.01C48 -0.02 48.5 0.22 48.86 0.61C49.22 1 49.39 1.51 49.34 2.01L49.11 4.26L51.37 4.49C52.07 4.56 52.68 5.06 52.9 5.72C53.13 6.38 52.93 7.13 52.43 7.61L48.38 11.3C48.05 11.61 47.61 11.78 47.15 11.78ZM42.89 9.55C42.91 9.55 42.97 9.56 42.99 9.56L47.15 9.98L51.2 6.28L48.34 6C47.67 5.93 47.18 5.33 47.25 4.66L47.54 1.82L43.08 5.01L42.67 9.12C42.67 9.14 42.66 9.19 42.65 9.21L42.58 9.56L42.88 9.55C42.89 9.55 42.89 9.55 42.89 9.55L42.89 9.55ZM41.85 9.56L41.85 9.56L41.85 9.56ZM23.78 25.71C23.52 25.71 23.26 25.6 23.08 25.38C22.76 24.99 22.82 24.42 23.21 24.11L40.88 9.77C41.27 9.45 41.84 9.51 42.16 9.89C42.48 10.28 42.42 10.85 42.03 11.16L24.36 25.51C24.19 25.64 23.98 25.71 23.78 25.71Z" />
<path
     id="Shape 59-1"
     class="shp1"
     d="M 3.75,49 C 3.59,49 3.42,48.95 3.27,48.86 2.85,48.59 2.72,48.04 2.99,47.61 L 7.17,40.97 C 7.44,40.54 8,40.42 8.42,40.68 8.84,40.95 8.97,41.5 8.71,41.92 L 4.52,48.57 C 4.35,48.85 4.06,49 3.75,49 z m 38.07,0 c -0.31,0 -0.6,-0.15 -0.77,-0.43 l -4.19,-6.65 c -0.26,-0.42 -0.13,-0.97 0.29,-1.24 0.42,-0.26 0.98,-0.14 1.25,0.29 l 4.18,6.64 c 0.27,0.43 0.14,0.98 -0.28,1.25 C 42.15,48.95 41.98,49 41.82,49 z M 23.4,47.39 c -2.3,0 -4.61,-0.36 -6.86,-1.08 C 10.85,44.5 6.21,40.58 3.48,35.29 0.75,30 0.25,23.96 2.08,18.3 7.134182,5.9730702 14.393462,0.12546966 29.21,5.6 29.6,5.91 29.67,6.47 29.36,6.87 29.05,7.26 28.48,7.33 28.09,7.02 15.097521,2.4366379 8.1125521,8.7595161 3.81,18.85 2.13,24.06 2.58,29.6 5.09,34.46 c 2.51,4.87 6.78,8.47 12,10.14 5.23,1.67 10.8,1.21 15.68,-1.29 9.775027,-5.642582 13.252152,-16.91514 8.89,-25.55 -0.23,-0.45 -0.05,-0.99 0.4,-1.22 0.44,-0.23 0.99,-0.05 1.21,0.39 5.13363,11.335044 0.24577,22.733848 -9.67,27.99 -3.21,1.64 -6.69,2.47 -10.2,2.47 z m 0,-5.99 C 17.21,41.4 11.28,37.89 8.52,31.94 6.69,27.98 6.51,23.56 8.02,19.48 c 4.337421,-9.00948 11.433271,-10.2595487 18.62,-7.8 0.42,0.28 0.52,0.84 0.24,1.25 -0.28,0.41 -0.85,0.52 -1.26,0.23 -7.196772,-2.741046 -13.347979,0.420869 -15.9,6.94 -1.34,3.63 -1.19,7.57 0.44,11.08 3.36,7.25 12.03,10.44 19.32,7.09 7.28,-3.35 10.48,-11.98 7.11,-19.23 -0.2,-0.45 -0.01,-0.99 0.45,-1.2 0.46,-0.21 0.99,-0.01 1.2,0.44 3.78,8.16 0.19,17.86 -8,21.63 -2.22,1.01 -4.55,1.49 -6.84,1.49 z m -0.04,-5.74 c -1.78,0 -3.54,-0.45 -5.13,-1.33 -2.48,-1.37 -4.27,-3.62 -5.04,-6.33 -0.78,-2.71 -0.45,-5.56 0.93,-8.02 2.513532,-4.575995 8.050664,-5.279416 10.19,-4.2 0.45,0.23 0.62,0.77 0.38,1.21 -0.23,0.44 -0.78,0.61 -1.22,0.38 -1.882481,-1.170967 -6.214269,-0.08658 -7.77,3.49 -1.14,2.04 -1.41,4.4 -0.77,6.65 0.64,2.24 2.13,4.1 4.18,5.24 2.05,1.14 4.42,1.41 6.67,0.77 2.26,-0.64 4.13,-2.12 5.27,-4.16 1.14,-2.04 1.42,-4.4 0.78,-6.64 -0.14,-0.48 0.14,-0.98 0.62,-1.12 0.48,-0.13 0.98,0.14 1.12,0.62 0.77,2.71 0.44,5.56 -0.93,8.02 -1.38,2.46 -3.64,4.24 -6.36,5.01 -0.96,0.28 -1.94,0.41 -2.92,0.41 z m 0.03,-4.94 c -0.34,0 -0.69,-0.03 -1.04,-0.09 -3.06,-0.57 -5.08,-3.5 -4.51,-6.55 0.387617,-2.822957 2.99312,-4.844993 4.57,-4.49 0.49,0.09 0.81,0.56 0.72,1.05 -0.09,0.49 -0.56,0.82 -1.05,0.73 -0.877839,-0.09827 -2.336172,1.235317 -2.46,3.04 -0.39,2.07 0.99,4.06 3.06,4.44 1,0.19 2.02,-0.02 2.86,-0.6 0.85,-0.58 1.41,-1.44 1.6,-2.44 0.09,-0.49 0.56,-0.82 1.06,-0.73 0.49,0.09 0.81,0.57 0.72,1.06 -0.27,1.47 -1.11,2.75 -2.35,3.6 -0.95,0.65 -2.05,0.98 -3.18,0.98 z" />
  <path
     id="Shape 59-3"
     class="shp1"
     d="m 37.035162,8.6218904 c -0.04624,0.019093 -0.09247,0.038176 -0.134599,0.047257 l -3.314559,1.0277119 -0.77832,0.3212854 0,0 c -0.285128,0.117699 -0.612338,0.119887 -0.893791,-0.0048 C 31.624738,9.8918152 31.422424,9.6680424 31.351119,9.3901885 L 31.157717,8.6312082 30.021919,5.7447992 C 29.873074,5.3909889 29.912247,4.9844777 30.1168,4.6425812 L 32.396137,1.044062 c 0.148017,-0.23550447 0.390022,-0.43506693 0.671554,-0.55958326 0.382234,-0.18269601 0.853783,-0.17802857 1.27135,-0.0265023 0.417567,0.15152835 0.731838,0.4453608 0.872975,0.80235502 l 0.631286,1.6080558 1.824233,-0.5620115 c 0.564584,-0.1749184 1.214333,-0.027872 1.621035,0.3523779 0.414409,0.3770702 0.529791,0.9523224 0.316975,1.4388159 l -1.795014,3.8055458 c -0.142906,0.3164498 -0.42089,0.5723839 -0.775372,0.7187122 z M 32.951005,8.4557597 c 0.01544,-0.00629 0.06524,-0.018628 0.08065,-0.024989 l 3.356682,-1.036797 1.791422,-3.812367 -2.304576,0.7187674 C 35.333722,4.4657535 34.740514,4.2123184 34.553698,3.7329928 L 33.75664,1.7033675 31.466002,5.2982466 32.626953,8.2324061 c 0.0071,0.013661 0.01745,0.050936 0.01693,0.067754 l 0.07183,0.2610288 0.227592,-0.1022505 c 0.0076,-0.0032 0.0076,-0.0032 0.0076,-0.0032 z m -0.797846,0.3376493 0,0 z m -8.121612,16.765252 c -0.200359,0.0827 -0.440246,0.09037 -0.658012,-0.0024 -0.386741,-0.164257 -0.545332,-0.57218 -0.356187,-0.907715 L 31.481124,9.2452515 c 0.185553,-0.3423557 0.64636,-0.4827461 1.029509,-0.3253117 0.38674,0.1642582 0.545329,0.5721806 0.356185,0.9077164 L 24.406635,25.237763 c -0.08429,0.142763 -0.220964,0.257314 -0.375085,0.320937 z" />
  <path
     id="Shape 59-3-6"
     class="shp1"
     d="m 43.908812,15.092767 c -0.05093,-9e-6 -0.102076,-2e-5 -0.144564,-0.0076 l -3.49464,-0.308606 -0.858791,2e-6 0,0 c -0.314596,10e-7 -0.612201,-0.120438 -0.807758,-0.338719 -0.204046,-0.218307 -0.280594,-0.496785 -0.212574,-0.775277 l 0.187067,-0.760222 0.348618,-3.0408976 c 0.03401,-0.3763498 0.263592,-0.7301185 0.612197,-0.9634493 l 3.783744,-2.4086273 c 0.246573,-0.1580745 0.561201,-0.2483905 0.875788,-0.255919 0.433643,-0.022581 0.858791,0.1580708 1.164892,0.4516202 0.306092,0.2935502 0.450613,0.6774322 0.408125,1.0537689 l -0.195555,1.6935668 1.921614,0.1731317 c 0.595204,0.052679 1.113857,0.4290436 1.300936,0.9258056 0.195556,0.496791 0.02551,1.061302 -0.399632,1.4226 l -3.443639,2.777459 c -0.28055,0.233354 -0.654699,0.361288 -1.045828,0.361288 z m -3.622207,-1.678521 c 0.017,5.5e-5 0.06802,0.0076 0.08503,0.0076 l 3.537162,0.316131 3.443624,-2.784965 -2.431782,-0.210758 C 44.35095,10.689517 43.934313,10.237893 43.993833,9.7335966 l 0.246572,-2.137668 -3.792237,2.4011075 -0.348623,3.0935749 c 4.33e-4,0.01513 -0.0087,0.05266 -0.01693,0.06777 l -0.05935,0.263465 0.255085,-0.0076 c 0.0076,-1.59e-4 0.0076,-1.59e-4 0.0076,-1.59e-4 z m -0.884291,0.0076 z M 24.03777,25.577831 c -0.221075,-7e-6 -0.442142,-0.0828 -0.595195,-0.248394 -0.272083,-0.293549 -0.221093,-0.722583 0.110535,-0.955923 L 38.577542,13.579845 c 0.331609,-0.240859 0.816269,-0.195719 1.088359,0.09032 0.27209,0.293557 0.22109,0.722579 -0.110544,0.955922 L 24.53092,25.42729 c -0.14454,0.09786 -0.323103,0.150546 -0.493163,0.150537 z" />
</svg>