<svg xmlns="http://www.w3.org/2000/svg" viewBox="0 0 105 66" width="105" height="66">
	<style>
		tspan { white-space:pre }
		@-webkit-keyframes squeeze-fadeOut {
			from {
				-webkit-transform: scale(1.0) rotate(0deg);
				transform: scale(1.0) rotate(0deg);
				-webkit-transform-origin: center center;
				transform-origin: center center;
				fill: rgba(31,169,151,1);
			}
			12.5%  {
			    -webkit-transform: scale(0.95) rotate(-7.5deg);
				transform: scale(0.95) rotate(-7.5deg);
				-webkit-transform-origin: center center;
				transform-origin: center center;
				fill: rgba(30,161,144,0.875);
			}
			25% {
				-webkit-transform: scale(0.9) rotate(-15deg);
				transform: scale(0.9) rotate(-15deg);
				-webkit-transform-origin: center center;
				transform-origin: center center;
				fill: rgba(28,153,137,0.75);
			}
			37.5% {
				-webkit-transform: scale(0.85) rotate(-7.5deg);
				transform: scale(0.85) rotate(-7.5deg);
				-webkit-transform-origin: center center;
				transform-origin: center center;
				fill: rgba(27,145,129,0.625);
			}
			50% {
				-webkit-transform: scale(0.8) rotate(0deg);
				transform: scale(0.8) rotate(0deg);
				-webkit-transform-origin: center center;
				transform-origin: center center;
				fill: rgba(25,136,122,0.5);
			}
			62.5% {
			    -webkit-transform: scale(0.85) rotate(7.5deg);
				transform: scale(0.85) rotate(7.5deg);
				-webkit-transform-origin: center center;
				transform-origin: center center;
				fill: rgba(24,129,115,0.375);
			}
			75% {
				-webkit-transform: scale(0.9) rotate(15deg);
				transform: scale(0.9) rotate(15deg);
				-webkit-transform-origin: center center;
				transform-origin: center center;
				fill: rgba(22,121,108,0.25);
			}
			87.5% {
				-webkit-transform: scale(0.95) rotate(7.5deg);
				transform: scale(0.95) rotate(7.5deg);
				-webkit-transform-origin: center center;
				transform-origin: center center;
				fill: rgba(21,112,100,0.125);
			}
			100% {
				-webkit-transform: scale(1.0) rotate(0deg);
				transform: scale(1.0) rotate(0deg);
				-webkit-transform-origin: center center;
				transform-origin: center center;
				fill: rgba(19,104,93,0);
			}
		}
		@keyframes squeeze-fadeOut {
			from {
				-webkit-transform: scale(1.0) rotate(0deg);
				transform: scale(1.0) rotate(0deg);
				-webkit-transform-origin: center center;
				transform-origin: center center;
				fill: rgba(31,169,151,1);
			}
			12.5%  {
			    -webkit-transform: scale(0.95) rotate(-7.5deg);
				transform: scale(0.95) rotate(-7.5deg);
				-webkit-transform-origin: center center;
				transform-origin: center center;
				fill: rgba(30,161,144,0.875);
			}
			25% {
				-webkit-transform: scale(0.9) rotate(-15deg);
				transform: scale(0.9) rotate(-15deg);
				-webkit-transform-origin: center center;
				transform-origin: center center;
				fill: rgba(28,153,137,0.75);
			}
			37.5% {
				-webkit-transform: scale(0.85) rotate(-7.5deg);
				transform: scale(0.85) rotate(-7.5deg);
				-webkit-transform-origin: center center;
				transform-origin: center center;
				fill: rgba(27,145,129,0.625);
			}
			50% {
				-webkit-transform: scale(0.8) rotate(0deg);
				transform: scale(0.8) rotate(0deg);
				-webkit-transform-origin: center center;
				transform-origin: center center;
				fill: rgba(25,136,122,0.5);
			}
			62.5% {
			    -webkit-transform: scale(0.85) rotate(7.5deg);
				transform: scale(0.85) rotate(7.5deg);
				-webkit-transform-origin: center center;
				transform-origin: center center;
				fill: rgba(24,129,115,0.375);
			}
			75% {
				-webkit-transform: scale(0.9) rotate(15deg);
				transform: scale(0.9) rotate(15deg);
				-webkit-transform-origin: center center;
				transform-origin: center center;
				fill: rgba(22,121,108,0.25);
			}
			87.5% {
				-webkit-transform: scale(0.95) rotate(7.5deg);
				transform: scale(0.95) rotate(7.5deg);
				-webkit-transform-origin: center center;
				transform-origin: center center;
				fill: rgba(21,112,100,0.125);
			}
			100% {
				-webkit-transform: scale(1.0) rotate(0deg);
				transform: scale(1.0) rotate(0deg);
				-webkit-transform-origin: center center;
				transform-origin: center center;
				fill: rgba(19,104,93,0);
			}
		}
		@-webkit-keyframes squeeze-fadeIn {
			from {
			    -webkit-transform: scale(1.0) rotate(0deg);
				transform: scale(1.0) rotate(0deg);
				-webkit-transform-origin: center center;
				transform-origin: center center;
				fill: rgba(31,169,151,0);
			}
			12.5%  {
				-webkit-transform: scale(0.95) rotate(-7.5deg);
				transform: scale(0.95) rotate(-7.5deg);
				-webkit-transform-origin: center center;
				transform-origin: center center;
				fill: rgba(30,161,144,0.125);
			}
			25% {
				-webkit-transform: scale(0.9) rotate(-15deg);
				transform: scale(0.9) rotate(-15deg);
				-webkit-transform-origin: center center;
				transform-origin: center center;
				fill: rgba(28,153,137,0.25);
			}
			37.5% {
				-webkit-transform: scale(0.85) rotate(-7.5deg);
				transform: scale(0.85) rotate(-7.5deg);
				-webkit-transform-origin: center center;
				transform-origin: center center;
				fill: rgba(27,145,129,0.375);
			}
			50% {
				-webkit-transform: scale(0.8) rotate(0deg);
				transform: scale(0.8) rotate(0deg);
				-webkit-transform-origin: center center;
				transform-origin: center center;
				fill: rgba(25,136,122,0.5);
			}
			62.5% {
				-webkit-transform: scale(0.85) rotate(7.5deg);
				transform: scale(0.85) rotate(7.5deg);
				-webkit-transform-origin: center center;
				transform-origin: center center;
				fill: rgba(24,129,115,0.625);
			}
			75% {
				-webkit-transform: scale(0.9) rotate(15deg);
				transform: scale(0.9) rotate(15deg);
				-webkit-transform-origin: center center;
				transform-origin: center center;
				fill: rgba(22,121,108,0.75);
			}
			87.5% {
				-webkit-transform: scale(0.95) rotate(7.5deg);
				transform: scale(0.95) rotate(7.5deg);
				-webkit-transform-origin: center center;
				transform-origin: center center;
				fill: rgba(21,112,100,0.875);
			}
			100% {
				-webkit-transform: scale(1.0) rotate(0deg);
				transform: scale(1.0) rotate(0deg);
				-webkit-transform-origin: center center;
				transform-origin: center center;
				fill: rgba(19,104,93,1);
			}
		}
		@keyframes squeeze-fadeIn {
			from {
			    -webkit-transform: scale(1.0) rotate(0deg);
				transform: scale(1.0) rotate(0deg);
				-webkit-transform-origin: center center;
				transform-origin: center center;
				fill: rgba(31,169,151,0);
			}
			12.5%  {
				-webkit-transform: scale(0.95) rotate(-7.5deg);
				transform: scale(0.95) rotate(-7.5deg);
				-webkit-transform-origin: center center;
				transform-origin: center center;
				fill: rgba(30,161,144,0.125);
			}
			25% {
				-webkit-transform: scale(0.9) rotate(-15deg);
				transform: scale(0.9) rotate(-15deg);
				-webkit-transform-origin: center center;
				transform-origin: center center;
				fill: rgba(28,153,137,0.25);
			}
			37.5% {
				-webkit-transform: scale(0.85) rotate(-7.5deg);
				transform: scale(0.85) rotate(-7.5deg);
				-webkit-transform-origin: center center;
				transform-origin: center center;
				fill: rgba(27,145,129,0.375);
			}
			50% {
				-webkit-transform: scale(0.8) rotate(0deg);
				transform: scale(0.8) rotate(0deg);
				-webkit-transform-origin: center center;
				transform-origin: center center;
				fill: rgba(25,136,122,0.5);
			}
			62.5% {
				-webkit-transform: scale(0.85) rotate(7.5deg);
				transform: scale(0.85) rotate(7.5deg);
				-webkit-transform-origin: center center;
				transform-origin: center center;
				fill: rgba(24,129,115,0.625);
			}
			75% {
				-webkit-transform: scale(0.9) rotate(15deg);
				transform: scale(0.9) rotate(15deg);
				-webkit-transform-origin: center center;
				transform-origin: center center;
				fill: rgba(22,121,108,0.75);
			}
			87.5% {
				-webkit-transform: scale(0.95) rotate(7.5deg);
				transform: scale(0.95) rotate(7.5deg);
				-webkit-transform-origin: center center;
				transform-origin: center center;
				fill: rgba(21,112,100,0.875);
			}
			100% {
				-webkit-transform: scale(1.0) rotate(0deg);
				transform: scale(1.0) rotate(0deg);
				-webkit-transform-origin: center center;
				transform-origin: center center;
				fill: rgba(19,104,93,1);
			}
		}
		.shp0, .shp1 {
			fill: rgba(31,169,151,1);
	        background-color: transparent;
	        -webkit-transition: all 1s ease-in-out;
	        -moz-transition: all 1s ease-in-out;
	        -ms-transition: all 1s ease-in-out;
	        -o-transition: all 1s ease-in-out;
	        transition: all 1s ease-in-out;
	        background-color: transparent;
		 }
		 .shp1 {
	        fill: rgba(31,169,151,0);
		 }
		 svg {
			-webkit-transition: all 1s ease-in-out;
	        -moz-transition: all 1s ease-in-out;
	        -ms-transition: all 1s ease-in-out;
	        -o-transition: all 1s ease-in-out;
	        transition: all 1s ease-in-out;	
		}
		svg:hover .shp0, svg:active .shp0 {
			fill: rgba(19,104,93,0);
			-webkit-animation: squeeze-fadeOut 1s ease-in-out;
			animation: squeeze-fadeOut 1s ease-in-out;
		}
		svg:hover .shp1, svg:active .shp1 {
			fill: rgba(19,104,93,1);
			-webkit-animation: squeeze-fadeIn 1s ease-in-out;
			animation: squeeze-fadeIn 1s ease-in-out;
		}

	</style>
	<path id="Shape 55" class="shp0" d="M23.86 66L18.61 66C16.88 66 15.41 64.78 15.12 63.1L12.69 44.54L10.4 44.54C7.71 44.54 5.49 42.45 5.37 39.82L5.1 39.82C2.83 39.82 0.99 38.02 0.99 35.79L0.99 27.97C0.99 25.74 2.83 23.93 5.1 23.93L5.37 23.93C5.49 21.31 7.7 19.22 10.4 19.22L26.09 19.22C27.99 19.22 29.68 20.24 30.54 21.84C34.32 21.81 46.05 21.15 57.21 14.71C70.34 7.13 72.67 1.53 72.7 1.47C73.06 0.47 74.12 -0.13 75.19 0.04C76.28 0.22 77.07 1.14 77.07 2.22L77.07 23.04C77.32 35.47 77.27 39.36 77.06 40.72L77.07 40.72L77.07 61.54C77.07 62.63 76.27 63.55 75.18 63.72C75.09 63.74 74.95 63.75 74.82 63.75C73.86 63.75 73 63.15 72.69 62.26C72.68 62.24 70.34 56.62 57.21 49.05C46.05 42.61 34.32 41.95 30.55 41.92C29.68 43.52 27.99 44.54 26.09 44.54L25.09 44.54L27.35 61.99C27.52 62.95 27.23 63.98 26.55 64.77C25.89 65.55 24.9 66 23.86 66ZM5.1 26.33C4.18 26.33 3.44 27.07 3.44 27.97L3.44 35.79C3.44 36.69 4.18 37.43 5.1 37.43L6.58 37.43C7.26 37.43 7.8 37.96 7.8 38.63L7.8 39.59C7.8 41 8.97 42.14 10.4 42.14L13.76 42.14C14.38 42.14 14.9 42.59 14.97 43.19L17.54 62.75C17.62 63.22 18.08 63.6 18.61 63.6L23.86 63.6C24.18 63.6 24.48 63.46 24.69 63.22C24.9 62.97 24.99 62.66 24.93 62.35L22.49 43.49C22.45 43.15 22.56 42.81 22.79 42.55C23.02 42.29 23.35 42.14 23.7 42.14L26.09 42.14C27.23 42.14 28.23 41.42 28.57 40.36C28.73 39.86 29.2 39.53 29.72 39.52L30.25 39.52C33.83 39.52 46.45 40.05 58.44 46.98C69.85 53.56 73.58 58.83 74.63 60.72L74.63 40.72C74.63 40.59 74.65 40.46 74.69 40.33C74.85 39.12 74.78 30.62 74.63 23.06L74.63 3.04C73.58 4.93 69.85 10.2 58.44 16.78C46.45 23.7 33.84 24.24 30.25 24.24L29.72 24.24C29.19 24.23 28.73 23.89 28.57 23.4C28.23 22.33 27.23 21.62 26.09 21.62L10.4 21.62C8.97 21.62 7.8 22.76 7.8 24.17L7.8 25.13C7.8 25.8 7.26 26.33 6.58 26.33L5.1 26.33ZM74.99 61.45C74.99 61.45 74.99 61.46 74.99 61.46C74.99 61.46 74.99 61.45 74.99 61.45ZM74.98 39.88L74.98 39.88L74.98 39.88ZM74.98 39.88C74.98 39.88 74.98 39.88 74.98 39.88C74.98 39.88 74.98 39.88 74.98 39.88L74.98 39.88ZM74.99 39.87C74.99 39.87 74.98 39.87 74.98 39.88C74.98 39.87 74.99 39.87 74.99 39.87L74.99 39.87ZM29.95 41.09C29.27 41.09 28.73 40.55 28.73 39.89L28.73 23.76C28.73 23.1 29.27 22.56 29.95 22.56C30.62 22.56 31.17 23.1 31.17 23.76L31.17 39.89C31.17 40.55 30.62 41.09 29.95 41.09ZM23.7 44.54L13.76 44.54C13.09 44.54 12.54 44 12.54 43.34C12.54 42.68 13.09 42.14 13.76 42.14L23.7 42.14C24.38 42.14 24.92 42.68 24.92 43.34C24.92 44 24.38 44.54 23.7 44.54ZM6.58 38.91C5.91 38.91 5.36 38.37 5.36 37.71L5.36 25.13C5.36 24.47 5.91 23.93 6.58 23.93C7.26 23.93 7.8 24.47 7.8 25.13L7.8 37.71C7.8 38.37 7.26 38.91 6.58 38.91ZM76.44 40.03C75.77 40.03 75.22 39.49 75.22 38.83C75.22 38.17 75.77 37.63 76.44 37.63C77.6 37.63 78.54 36.85 78.54 35.89L78.54 27.58C78.54 26.62 77.6 25.84 76.44 25.84C75.77 25.84 75.22 25.3 75.22 24.64C75.22 23.97 75.77 23.44 76.44 23.44C78.95 23.44 80.99 25.29 80.99 27.58L80.99 35.89C80.99 38.17 78.95 40.03 76.44 40.03ZM103.78 34.16L94.5 34.16C93.83 34.16 93.28 33.62 93.28 32.96C93.28 32.3 93.83 31.76 94.5 31.76L103.78 31.76C104.45 31.76 105 32.3 105 32.96C105 33.62 104.45 34.16 103.78 34.16ZM95.11 55.47C94.8 55.47 94.49 55.36 94.25 55.12L87.69 48.68C87.21 48.21 87.21 47.45 87.69 46.98C88.17 46.51 88.94 46.51 89.42 46.98L95.98 53.43C96.45 53.89 96.45 54.65 95.98 55.12C95.74 55.36 95.43 55.47 95.11 55.47ZM88.55 19.56C88.24 19.56 87.93 19.44 87.69 19.21C87.21 18.74 87.21 17.98 87.69 17.51L94.25 11.07C94.73 10.6 95.5 10.6 95.98 11.07C96.45 11.54 96.45 12.3 95.98 12.76L89.42 19.21C89.18 19.44 88.87 19.56 88.55 19.56Z" />
<path
     id="Shape 55"
     class="shp1"
     d="m 23.86,66 -5.25,0 c -1.73,0 -3.2,-1.22 -3.49,-2.9 l -2.43,-18.56 -2.29,0 c -2.69,0 -4.91,-2.09 -5.03,-4.72 l -0.27,0 c -2.27,0 -4.11,-1.8 -4.11,-4.03 l 0,-7.82 c 0,-2.23 1.84,-4.04 4.11,-4.04 l 0.27,0 C 5.49,21.31 7.7,19.22 10.4,19.22 l 15.69,0 c 1.9,0 3.59,1.02 4.45,2.62 3.78,-0.03 15.51,-0.69 26.67,-7.13 C 70.34,7.13 72.67,1.53 72.7,1.47 c 0.36,-1 1.42,-1.6 2.49,-1.43 1.09,0.18 1.88,1.1 1.88,2.18 l 0,20.82 c 0.25,12.43 0.2,16.32 -0.01,17.68 l 0.01,0 0,20.82 c 0,1.09 -0.8,2.01 -1.89,2.18 -0.09,0.02 -0.23,0.03 -0.36,0.03 -0.96,0 -1.82,-0.6 -2.13,-1.49 -0.01,-0.02 -2.35,-5.64 -15.48,-13.21 -11.16,-6.44 -22.89,-7.1 -26.66,-7.13 -0.87,1.6 -2.56,2.62 -4.46,2.62 l -1,0 2.26,17.45 c 0.17,0.96 -0.12,1.99 -0.8,2.78 C 25.89,65.55 24.9,66 23.86,66 z M 5.1,26.33 c -0.92,0 -1.66,0.74 -1.66,1.64 l 0,7.82 c 0,0.9 0.74,1.64 1.66,1.64 l 1.48,0 c 0.68,0 1.22,0.53 1.22,1.2 l 0,0.96 c 0,1.41 1.17,2.55 2.6,2.55 l 3.36,0 c 0.62,0 1.14,0.45 1.21,1.05 l 2.57,19.56 c 0.08,0.47 0.54,0.85 1.07,0.85 l 5.25,0 c 0.32,0 0.62,-0.14 0.83,-0.38 0.21,-0.25 0.3,-0.56 0.24,-0.87 L 22.49,43.49 c -0.04,-0.34 0.07,-0.68 0.3,-0.94 0.23,-0.26 0.56,-0.41 0.91,-0.41 l 2.39,0 c 1.14,0 2.14,-0.72 2.48,-1.78 0.16,-0.5 0.63,-0.83 1.15,-0.84 l 0.53,0 c 3.58,0 16.2,0.53 28.19,7.46 11.41,6.58 15.14,11.85 16.19,13.74 l 0,-20 c 0,-0.13 0.02,-0.26 0.06,-0.39 0.16,-1.21 0.09,-9.71 -0.06,-17.27 l 0,-20.02 C 73.58,4.93 69.85,10.2 58.44,16.78 46.45,23.7 33.84,24.24 30.25,24.24 l -0.53,0 C 29.19,24.23 28.73,23.89 28.57,23.4 28.23,22.33 27.23,21.62 26.09,21.62 l -15.69,0 c -1.43,0 -2.6,1.14 -2.6,2.55 l 0,0.96 c 0,0.67 -0.54,1.2 -1.22,1.2 z m 69.89,35.12 0,0.01 z m -0.01,-21.57 0,0 z m 0,0 0,0 0,0 z m 0.01,-0.01 c 0,0 -0.01,0 -0.01,0.01 0,-0.01 0.01,-0.01 0.01,-0.01 z m -45.04,1.22 c -0.68,0 -1.22,-0.54 -1.22,-1.2 l 0,-16.13 c 0,-0.66 0.54,-1.2 1.22,-1.2 0.67,0 1.22,0.54 1.22,1.2 l 0,16.13 c 0,0.66 -0.55,1.2 -1.22,1.2 z m -6.25,3.45 -9.94,0 c -0.67,0 -1.22,-0.54 -1.22,-1.2 0,-0.66 0.55,-1.2 1.22,-1.2 l 9.94,0 c 0.68,0 1.22,0.54 1.22,1.2 0,0.66 -0.54,1.2 -1.22,1.2 z M 6.58,38.91 c -0.67,0 -1.22,-0.54 -1.22,-1.2 l 0,-12.58 c 0,-0.66 0.55,-1.2 1.22,-1.2 0.68,0 1.22,0.54 1.22,1.2 l 0,12.58 c 0,0.66 -0.54,1.2 -1.22,1.2 z m 69.86,1.12 c -0.67,0 -1.22,-0.54 -1.22,-1.2 0,-0.66 0.55,-1.2 1.22,-1.2 1.16,0 2.1,-0.78 2.1,-1.74 l 0,-8.31 c 0,-0.96 -0.94,-1.74 -2.1,-1.74 -0.67,0 -1.22,-0.54 -1.22,-1.2 0,-0.67 0.55,-1.2 1.22,-1.2 2.51,0 4.55,1.85 4.55,4.14 l 0,8.31 c 0,2.28 -2.04,4.14 -4.55,4.14 z" />
  <g
     id="g3270"
     transform="translate(-270.47004,-1.1829744)">
    <path
       d="m 361.77039,41.518798 c -1.96226,-0.160032 -3.57413,-0.600119 -4.90566,-1.240245 -1.1213,-0.540107 -1.44834,-1.800354 -0.70081,-2.700531 l 0.0234,-0.02 c 0.67745,-0.800157 1.9389,-1.040205 2.92003,-0.540106 1.2381,0.620122 2.75652,1.060209 4.48518,1.060209 1.68195,0 2.70981,-0.560111 2.70981,-1.32026 0,-2.180428 -10.76911,-0.420082 -10.76911,-6.561291 0,-2.420476 2.19587,-4.600905 6.2372,-5.000984 l 0,-2.24044 3.15364,0 0,2.260444 c 1.37827,0.160031 2.63972,0.480095 3.78438,0.980193 1.21474,0.500099 1.4717,1.840362 0.67745,2.740539 l 0,0 c -0.67745,0.720142 -1.84546,0.900178 -2.82661,0.480095 -1.26145,-0.520103 -2.66306,-0.780154 -3.97124,-0.780154 -1.42498,0 -2.05572,0.480094 -2.05572,1.140225 0,2.040401 10.74576,0.56011 10.74576,6.481275 0,2.860563 -2.2426,4.88096 -6.35402,5.261035 l 0,2.160425 -3.15364,0 z"
       class="shp1" />
    <path
       d="m 75.98,54.59 -54.52,0 c -0.7,0 -1.27,-0.56 -1.27,-1.25 l 0,-28.72 c 0,-0.69 0.57,-1.25 1.27,-1.25 l 54.52,0 c 0.71,0 1.28,0.56 1.28,1.25 l 0,28.72 c 0,0.69 -0.57,1.25 -1.28,1.25 z m -53.24,-2.51 51.96,0 0,-26.2 -51.96,0 z M 21.8,32.68 c -0.7,0 -1.28,-0.56 -1.28,-1.25 0,-0.69 0.58,-1.26 1.28,-1.26 3.03,0 5.5,-2.41 5.5,-5.38 0,-0.69 0.57,-1.25 1.28,-1.25 0.7,0 1.27,0.56 1.27,1.25 0,4.35 -3.61,7.89 -8.05,7.89 z m 53.51,0 c -4.44,0 -8.05,-3.54 -8.05,-7.89 0,-0.69 0.57,-1.25 1.27,-1.25 0.71,0 1.28,0.56 1.28,1.25 0,2.97 2.47,5.38 5.5,5.38 0.7,0 1.28,0.57 1.28,1.26 0,0.69 -0.58,1.25 -1.28,1.25 z m -6.78,21.91 c -0.7,0 -1.27,-0.56 -1.27,-1.25 0,-4.35 3.61,-7.9 8.05,-7.9 0.7,0 1.28,0.57 1.28,1.26 0,0.69 -0.58,1.25 -1.28,1.25 -3.03,0 -5.5,2.42 -5.5,5.39 0,0.69 -0.57,1.25 -1.28,1.25 z m -39.95,0 c -0.71,0 -1.28,-0.56 -1.28,-1.25 0,-2.97 -2.47,-5.39 -5.5,-5.39 -0.7,0 -1.28,-0.56 -1.28,-1.25 0,-0.69 0.58,-1.26 1.28,-1.26 4.44,0 8.05,3.55 8.05,7.9 0,0.69 -0.57,1.25 -1.27,1.25 z m 20.86,-3.9 c -6.56,0 -11.9,-5.23 -11.9,-11.67 0,-6.43 5.34,-11.67 11.9,-11.67 6.57,0 11.91,5.24 11.91,11.67 0,6.44 -5.34,11.67 -11.91,11.67 z m 0,-20.83 c -5.15,0 -9.34,4.11 -9.34,9.16 0,5.05 4.19,9.16 9.34,9.16 5.16,0 9.35,-4.11 9.35,-9.16 0,-5.05 -4.19,-9.16 -9.35,-9.16 z m -0.63,13.38 c -0.84,-0.08 -1.53,-0.3 -2.1,-0.62 -0.48,-0.27 -0.62,-0.9 -0.3,-1.35 l 0.01,-0.01 c 0.29,-0.4 0.83,-0.52 1.25,-0.27 0.53,0.31 1.18,0.53 1.92,0.53 0.72,0 1.16,-0.28 1.16,-0.66 0,-1.09 -4.61,-0.21 -4.61,-3.28 0,-1.21 0.94,-2.3 2.67,-2.5 l 0,-1.12 1.35,0 0,1.13 c 0.59,0.08 1.13,0.24 1.62,0.49 0.52,0.25 0.63,0.92 0.29,1.37 l 0,0 c -0.29,0.36 -0.79,0.45 -1.21,0.24 -0.54,-0.26 -1.14,-0.39 -1.7,-0.39 -0.61,0 -0.88,0.24 -0.88,0.57 0,1.02 4.6,0.28 4.6,3.24 0,1.43 -0.96,2.44 -2.72,2.63 l 0,1.08 -1.35,0 z m 22.6,-21.35 -46.05,0 c -0.71,0 -1.28,-0.56 -1.28,-1.25 0,-0.69 0.57,-1.25 1.28,-1.25 l 46.05,0 c 0.71,0 1.28,0.56 1.28,1.25 0,0.69 -0.57,1.25 -1.28,1.25 z m -5.71,-3.65 -34.42,0 c -0.7,0 -1.27,-0.56 -1.27,-1.25 0,-0.69 0.57,-1.26 1.27,-1.26 l 34.42,0 c 0.7,0 1.28,0.57 1.28,1.26 0,0.69 -0.58,1.25 -1.28,1.25 z"
       class="shp1" />
    <path
       d="m 93.857201,20.41856 c 0,-0.45 -0.24,-0.89 -0.65,-1.12 -0.61,-0.34 -1.37,-0.12 -1.71,0.5 l -2.51,4.66 -4.57,-2.56 c -0.61,-0.35 -1.37,-0.12 -1.7,0.5 -0.34,0.62 -0.12,1.39 0.49,1.74 l 5.67,3.18 c 0.29,0.16 0.63,0.2 0.95,0.11 0.32,-0.1 0.59,-0.32 0.75,-0.61 l 3.12,-5.79 c 0.11,-0.19 0.16,-0.4 0.16,-0.61 z m -3.4,4.58 c 0,-0.09 -0.01,-0.17 -0.03,-0.26 l -0.08,-0.42 c -0.01,-0.01 -0.05,-0.22 -0.05,-0.23 l -0.07,-0.3 c -2.94,-12.39001 -13.29,-21.30001 -25.77,-22.18001 -0.69,-0.04 -1.29,0.49 -1.34,1.19 -0.03,0.74 0.48,1.32 1.17,1.37 11.38,0.79 20.82,8.92001 23.5,20.22001 l 0.07,0.29 1.26,-0.09 -1.22,0.28 0.08,0.39 c 0.14,0.7 0.81,1.14 1.49,0.99 0.59,-0.12 0.99,-0.66 0.99,-1.25 z m 3.4,-4.58 c 0,-0.45 -0.24,-0.89 -0.65,-1.12 -0.61,-0.34 -1.37,-0.12 -1.71,0.5 l -2.51,4.66 -4.57,-2.56 c -0.61,-0.35 -1.37,-0.12 -1.7,0.5 -0.34,0.62 -0.12,1.39 0.49,1.74 l 5.67,3.18 c 0.29,0.16 0.63,0.2 0.95,0.11 0.32,-0.1 0.59,-0.32 0.75,-0.61 l 3.12,-5.79 c 0.11,-0.19 0.16,-0.4 0.16,-0.61 z"
       class="shp1" />
    <path
       d="m 1.590536,48.90407 c 0,0.45 0.24,0.89 0.65,1.12 0.61,0.34 1.37,0.12 1.71,-0.5 l 2.51,-4.66 4.57,2.56 c 0.61,0.35 1.37,0.12 1.7,-0.5 0.34,-0.62 0.12,-1.39 -0.49,-1.74 l -5.67,-3.18 c -0.29,-0.16 -0.63,-0.2 -0.95,-0.11 -0.32,0.1 -0.59,0.32 -0.75,0.61 l -3.12,5.79 c -0.11,0.19 -0.16,0.4 -0.16,0.61 z m 3.4,-4.58 c 0,0.09 0.01,0.17 0.03,0.26 l 0.08,0.42 c 0.01,0.01 0.05,0.22 0.05,0.23 l 0.07,0.3 c 2.94,12.39 13.29,21.3 25.77,22.18 0.69,0.04 1.29,-0.49 1.34,-1.19 0.03,-0.74 -0.48,-1.32 -1.17,-1.37 -11.38,-0.79 -20.82,-8.92 -23.5,-20.22 l -0.07,-0.29 -1.26,0.09 1.22,-0.28 -0.08,-0.39 c -0.14,-0.7 -0.81,-1.14 -1.49,-0.99 -0.59,0.12 -0.99,0.66 -0.99,1.25 z m -3.4,4.58 c 0,0.45 0.24,0.89 0.65,1.12 0.61,0.34 1.37,0.12 1.71,-0.5 l 2.51,-4.66 4.57,2.56 c 0.61,0.35 1.37,0.12 1.7,-0.5 0.34,-0.62 0.12,-1.39 -0.49,-1.74 l -5.67,-3.18 c -0.29,-0.16 -0.63,-0.2 -0.95,-0.11 -0.32,0.1 -0.59,0.32 -0.75,0.61 l -3.12,5.79 c -0.11,0.19 -0.16,0.4 -0.16,0.61 z"
       class="shp1" />
    <path
       d="m 61.395594,14.410097 -25.546637,0 c -0.519543,0 -0.942598,-0.56 -0.942598,-1.25 0,-0.69 0.423055,-1.26 0.942598,-1.26 l 25.546637,0 c 0.519543,0 0.95002,0.57 0.95002,1.26 0,0.69 -0.430477,1.25 -0.95002,1.25 z"
       class="shp1" />
  </g>
</svg>