<svg xmlns="http://www.w3.org/2000/svg" viewBox="0 0 95 69" width="95" height="69">
	<style>
		tspan { white-space:pre }
		@-webkit-keyframes squeeze-fadeOut {
			from {
				-webkit-transform: scale(1.0) rotate(0deg);
				transform: scale(1.0) rotate(0deg);
				-webkit-transform-origin: center center;
				transform-origin: center center;
				fill: rgba(31,169,151,1);
			}
			12.5%  {
			    -webkit-transform: scale(0.95) rotate(-7.5deg);
				transform: scale(0.95) rotate(-7.5deg);
				-webkit-transform-origin: center center;
				transform-origin: center center;
				fill: rgba(30,161,144,0.875);
			}
			25% {
				-webkit-transform: scale(0.9) rotate(-15deg);
				transform: scale(0.9) rotate(-15deg);
				-webkit-transform-origin: center center;
				transform-origin: center center;
				fill: rgba(28,153,137,0.75);
			}
			37.5% {
				-webkit-transform: scale(0.85) rotate(-7.5deg);
				transform: scale(0.85) rotate(-7.5deg);
				-webkit-transform-origin: center center;
				transform-origin: center center;
				fill: rgba(27,145,129,0.625);
			}
			50% {
				-webkit-transform: scale(0.8) rotate(0deg);
				transform: scale(0.8) rotate(0deg);
				-webkit-transform-origin: center center;
				transform-origin: center center;
				fill: rgba(25,136,122,0.5);
			}
			62.5% {
			    -webkit-transform: scale(0.85) rotate(7.5deg);
				transform: scale(0.85) rotate(7.5deg);
				-webkit-transform-origin: center center;
				transform-origin: center center;
				fill: rgba(24,129,115,0.375);
			}
			75% {
				-webkit-transform: scale(0.9) rotate(15deg);
				transform: scale(0.9) rotate(15deg);
				-webkit-transform-origin: center center;
				transform-origin: center center;
				fill: rgba(22,121,108,0.25);
			}
			87.5% {
				-webkit-transform: scale(0.95) rotate(7.5deg);
				transform: scale(0.95) rotate(7.5deg);
				-webkit-transform-origin: center center;
				transform-origin: center center;
				fill: rgba(21,112,100,0.125);
			}
			100% {
				-webkit-transform: scale(1.0) rotate(0deg);
				transform: scale(1.0) rotate(0deg);
				-webkit-transform-origin: center center;
				transform-origin: center center;
				fill: rgba(19,104,93,0);
			}
		}
		@keyframes squeeze-fadeOut {
			from {
				-webkit-transform: scale(1.0) rotate(0deg);
				transform: scale(1.0) rotate(0deg);
				-webkit-transform-origin: center center;
				transform-origin: center center;
				fill: rgba(31,169,151,1);
			}
			12.5%  {
			    -webkit-transform: scale(0.95) rotate(-7.5deg);
				transform: scale(0.95) rotate(-7.5deg);
				-webkit-transform-origin: center center;
				transform-origin: center center;
				fill: rgba(30,161,144,0.875);
			}
			25% {
				-webkit-transform: scale(0.9) rotate(-15deg);
				transform: scale(0.9) rotate(-15deg);
				-webkit-transform-origin: center center;
				transform-origin: center center;
				fill: rgba(28,153,137,0.75);
			}
			37.5% {
				-webkit-transform: scale(0.85) rotate(-7.5deg);
				transform: scale(0.85) rotate(-7.5deg);
				-webkit-transform-origin: center center;
				transform-origin: center center;
				fill: rgba(27,145,129,0.625);
			}
			50% {
				-webkit-transform: scale(0.8) rotate(0deg);
				transform: scale(0.8) rotate(0deg);
				-webkit-transform-origin: center center;
				transform-origin: center center;
				fill: rgba(25,136,122,0.5);
			}
			62.5% {
			    -webkit-transform: scale(0.85) rotate(7.5deg);
				transform: scale(0.85) rotate(7.5deg);
				-webkit-transform-origin: center center;
				transform-origin: center center;
				fill: rgba(24,129,115,0.375);
			}
			75% {
				-webkit-transform: scale(0.9) rotate(15deg);
				transform: scale(0.9) rotate(15deg);
				-webkit-transform-origin: center center;
				transform-origin: center center;
				fill: rgba(22,121,108,0.25);
			}
			87.5% {
				-webkit-transform: scale(0.95) rotate(7.5deg);
				transform: scale(0.95) rotate(7.5deg);
				-webkit-transform-origin: center center;
				transform-origin: center center;
				fill: rgba(21,112,100,0.125);
			}
			100% {
				-webkit-transform: scale(1.0) rotate(0deg);
				transform: scale(1.0) rotate(0deg);
				-webkit-transform-origin: center center;
				transform-origin: center center;
				fill: rgba(19,104,93,0);
			}
		}
		@-webkit-keyframes squeeze-fadeIn {
			from {
			    -webkit-transform: scale(1.0) rotate(0deg);
				transform: scale(1.0) rotate(0deg);
				-webkit-transform-origin: center center;
				transform-origin: center center;
				fill: rgba(31,169,151,0);
			}
			12.5%  {
				-webkit-transform: scale(0.95) rotate(-7.5deg);
				transform: scale(0.95) rotate(-7.5deg);
				-webkit-transform-origin: center center;
				transform-origin: center center;
				fill: rgba(30,161,144,0.125);
			}
			25% {
				-webkit-transform: scale(0.9) rotate(-15deg);
				transform: scale(0.9) rotate(-15deg);
				-webkit-transform-origin: center center;
				transform-origin: center center;
				fill: rgba(28,153,137,0.25);
			}
			37.5% {
				-webkit-transform: scale(0.85) rotate(-7.5deg);
				transform: scale(0.85) rotate(-7.5deg);
				-webkit-transform-origin: center center;
				transform-origin: center center;
				fill: rgba(27,145,129,0.375);
			}
			50% {
				-webkit-transform: scale(0.8) rotate(0deg);
				transform: scale(0.8) rotate(0deg);
				-webkit-transform-origin: center center;
				transform-origin: center center;
				fill: rgba(25,136,122,0.5);
			}
			62.5% {
				-webkit-transform: scale(0.85) rotate(7.5deg);
				transform: scale(0.85) rotate(7.5deg);
				-webkit-transform-origin: center center;
				transform-origin: center center;
				fill: rgba(24,129,115,0.625);
			}
			75% {
				-webkit-transform: scale(0.9) rotate(15deg);
				transform: scale(0.9) rotate(15deg);
				-webkit-transform-origin: center center;
				transform-origin: center center;
				fill: rgba(22,121,108,0.75);
			}
			87.5% {
				-webkit-transform: scale(0.95) rotate(7.5deg);
				transform: scale(0.95) rotate(7.5deg);
				-webkit-transform-origin: center center;
				transform-origin: center center;
				fill: rgba(21,112,100,0.875);
			}
			100% {
				-webkit-transform: scale(1.0) rotate(0deg);
				transform: scale(1.0) rotate(0deg);
				-webkit-transform-origin: center center;
				transform-origin: center center;
				fill: rgba(19,104,93,1);
			}
		}
		@keyframes squeeze-fadeIn {
			from {
			    -webkit-transform: scale(1.0) rotate(0deg);
				transform: scale(1.0) rotate(0deg);
				-webkit-transform-origin: center center;
				transform-origin: center center;
				fill: rgba(31,169,151,0);
			}
			12.5%  {
				-webkit-transform: scale(0.95) rotate(-7.5deg);
				transform: scale(0.95) rotate(-7.5deg);
				-webkit-transform-origin: center center;
				transform-origin: center center;
				fill: rgba(30,161,144,0.125);
			}
			25% {
				-webkit-transform: scale(0.9) rotate(-15deg);
				transform: scale(0.9) rotate(-15deg);
				-webkit-transform-origin: center center;
				transform-origin: center center;
				fill: rgba(28,153,137,0.25);
			}
			37.5% {
				-webkit-transform: scale(0.85) rotate(-7.5deg);
				transform: scale(0.85) rotate(-7.5deg);
				-webkit-transform-origin: center center;
				transform-origin: center center;
				fill: rgba(27,145,129,0.375);
			}
			50% {
				-webkit-transform: scale(0.8) rotate(0deg);
				transform: scale(0.8) rotate(0deg);
				-webkit-transform-origin: center center;
				transform-origin: center center;
				fill: rgba(25,136,122,0.5);
			}
			62.5% {
				-webkit-transform: scale(0.85) rotate(7.5deg);
				transform: scale(0.85) rotate(7.5deg);
				-webkit-transform-origin: center center;
				transform-origin: center center;
				fill: rgba(24,129,115,0.625);
			}
			75% {
				-webkit-transform: scale(0.9) rotate(15deg);
				transform: scale(0.9) rotate(15deg);
				-webkit-transform-origin: center center;
				transform-origin: center center;
				fill: rgba(22,121,108,0.75);
			}
			87.5% {
				-webkit-transform: scale(0.95) rotate(7.5deg);
				transform: scale(0.95) rotate(7.5deg);
				-webkit-transform-origin: center center;
				transform-origin: center center;
				fill: rgba(21,112,100,0.875);
			}
			100% {
				-webkit-transform: scale(1.0) rotate(0deg);
				transform: scale(1.0) rotate(0deg);
				-webkit-transform-origin: center center;
				transform-origin: center center;
				fill: rgba(19,104,93,1);
			}
		}
		.shp0, .shp1 {
			fill: rgba(31,169,151,1);
	        background-color: transparent;
	        -webkit-transition: all 1s ease-in-out;
	        -moz-transition: all 1s ease-in-out;
	        -ms-transition: all 1s ease-in-out;
	        -o-transition: all 1s ease-in-out;
	        transition: all 1s ease-in-out;
	        background-color: transparent;
		 }
		 .shp1 {
	        fill: rgba(31,169,151,0);
		 }
		 svg {
			-webkit-transition: all 1s ease-in-out;
	        -moz-transition: all 1s ease-in-out;
	        -ms-transition: all 1s ease-in-out;
	        -o-transition: all 1s ease-in-out;
	        transition: all 1s ease-in-out;	
		}
		svg:hover .shp0, svg:active .shp0 {
			fill: rgba(19,104,93,0);
			-webkit-animation: squeeze-fadeOut 1s ease-in-out;
			animation: squeeze-fadeOut 1s ease-in-out;
		}
		svg:hover .shp1, svg:active .shp1 {
			fill: rgba(19,104,93,1);
			-webkit-animation: squeeze-fadeIn 1s ease-in-out;
			animation: squeeze-fadeIn 1s ease-in-out;
		}

	</style>
	<path id="Shape 52" class="shp0" d="M75.98 52.59L21.46 52.59C20.76 52.59 20.19 52.03 20.19 51.34L20.19 22.62C20.19 21.93 20.76 21.37 21.46 21.37L75.98 21.37C76.69 21.37 77.26 21.93 77.26 22.62L77.26 51.34C77.26 52.03 76.69 52.59 75.98 52.59ZM22.74 50.08L74.7 50.08L74.7 23.88L22.74 23.88L22.74 50.08ZM21.8 30.68C21.1 30.68 20.52 30.12 20.52 29.43C20.52 28.74 21.1 28.17 21.8 28.17C24.83 28.17 27.3 25.76 27.3 22.79C27.3 22.1 27.87 21.54 28.58 21.54C29.28 21.54 29.85 22.1 29.85 22.79C29.85 27.14 26.24 30.68 21.8 30.68ZM75.31 30.68C70.87 30.68 67.26 27.14 67.26 22.79C67.26 22.1 67.83 21.54 68.53 21.54C69.24 21.54 69.81 22.1 69.81 22.79C69.81 25.76 72.28 28.17 75.31 28.17C76.01 28.17 76.59 28.74 76.59 29.43C76.59 30.12 76.01 30.68 75.31 30.68ZM68.53 52.59C67.83 52.59 67.26 52.03 67.26 51.34C67.26 46.99 70.87 43.44 75.31 43.44C76.01 43.44 76.59 44.01 76.59 44.7C76.59 45.39 76.01 45.95 75.31 45.95C72.28 45.95 69.81 48.37 69.81 51.34C69.81 52.03 69.24 52.59 68.53 52.59ZM28.58 52.59C27.87 52.59 27.3 52.03 27.3 51.34C27.3 48.37 24.83 45.95 21.8 45.95C21.1 45.95 20.52 45.39 20.52 44.7C20.52 44.01 21.1 43.44 21.8 43.44C26.24 43.44 29.85 46.99 29.85 51.34C29.85 52.03 29.28 52.59 28.58 52.59ZM49.44 48.69C42.88 48.69 37.54 43.46 37.54 37.02C37.54 30.59 42.88 25.35 49.44 25.35C56.01 25.35 61.35 30.59 61.35 37.02C61.35 43.46 56.01 48.69 49.44 48.69ZM49.44 27.86C44.29 27.86 40.1 31.97 40.1 37.02C40.1 42.07 44.29 46.18 49.44 46.18C54.6 46.18 58.79 42.07 58.79 37.02C58.79 31.97 54.6 27.86 49.44 27.86ZM48.81 41.24C47.97 41.16 47.28 40.94 46.71 40.62C46.23 40.35 46.09 39.72 46.41 39.27L46.42 39.26C46.71 38.86 47.25 38.74 47.67 38.99C48.2 39.3 48.85 39.52 49.59 39.52C50.31 39.52 50.75 39.24 50.75 38.86C50.75 37.77 46.14 38.65 46.14 35.58C46.14 34.37 47.08 33.28 48.81 33.08L48.81 31.96L50.16 31.96L50.16 33.09C50.75 33.17 51.29 33.33 51.78 33.58C52.3 33.83 52.41 34.5 52.07 34.95L52.07 34.95C51.78 35.31 51.28 35.4 50.86 35.19C50.32 34.93 49.72 34.8 49.16 34.8C48.55 34.8 48.28 35.04 48.28 35.37C48.28 36.39 52.88 35.65 52.88 38.61C52.88 40.04 51.92 41.05 50.16 41.24L50.16 42.32L48.81 42.32L48.81 41.24ZM71.41 19.89L25.36 19.89C24.65 19.89 24.08 19.33 24.08 18.64C24.08 17.95 24.65 17.39 25.36 17.39L71.41 17.39C72.12 17.39 72.69 17.95 72.69 18.64C72.69 19.33 72.12 19.89 71.41 19.89ZM65.7 16.24L31.28 16.24C30.58 16.24 30.01 15.68 30.01 14.99C30.01 14.3 30.58 13.73 31.28 13.73L65.7 13.73C66.4 13.73 66.98 14.3 66.98 14.99C66.98 15.68 66.4 16.24 65.7 16.24ZM72.61 11.31C72.16 11.31 71.72 11.07 71.49 10.66L68.31 4.99C68.14 4.7 68.1 4.35 68.2 4.03C68.29 3.71 68.51 3.45 68.81 3.29L74.59 0.17C75.21 -0.17 75.99 0.05 76.33 0.66C76.67 1.27 76.44 2.03 75.83 2.36L71.16 4.88L73.73 9.45C74.07 10.05 73.85 10.82 73.23 11.15C73.03 11.26 72.82 11.31 72.61 11.31ZM92.73 30.75C92.07 30.75 91.51 30.24 91.46 29.58C90.66 18.2 82.54 8.75 71.23 6.08L70.96 6.01L71.1 4.76L70.82 5.98L70.37 5.89C69.67 5.75 69.23 5.08 69.37 4.4C69.52 3.73 70.19 3.29 70.88 3.43L71.83 3.64C84.23 6.58 93.14 16.93 94.01 29.41C94.06 30.1 93.53 30.7 92.82 30.74C92.79 30.74 92.76 30.75 92.73 30.75ZM72.61 11.31C72.16 11.31 71.72 11.07 71.49 10.66L68.31 4.99C68.14 4.7 68.1 4.35 68.2 4.03C68.29 3.71 68.51 3.45 68.81 3.29L74.59 0.17C75.21 -0.17 75.99 0.05 76.33 0.66C76.67 1.27 76.44 2.03 75.83 2.36L71.16 4.88L73.73 9.45C74.07 10.05 73.85 10.82 73.23 11.15C73.03 11.26 72.82 11.31 72.61 11.31ZM18.82 69C18.37 69 17.93 68.76 17.7 68.35C17.36 67.74 17.58 66.98 18.2 66.64L22.86 64.13L20.3 59.56C19.95 58.95 20.18 58.19 20.8 57.86C21.42 57.52 22.19 57.74 22.54 58.35L25.72 64.02C25.88 64.31 25.92 64.65 25.83 64.97C25.73 65.29 25.51 65.56 25.22 65.72L19.43 68.84C19.24 68.95 19.03 69 18.82 69ZM23.4 65.6C23.31 65.6 23.23 65.59 23.14 65.57L22.72 65.49C22.71 65.48 22.5 65.44 22.49 65.44L22.19 65.37C9.8 62.43 0.89 52.08 0.01 39.6C-0.03 38.91 0.5 38.31 1.2 38.26C1.94 38.23 2.52 38.74 2.57 39.43C3.36 50.81 11.49 60.25 22.79 62.93L23.08 63L22.99 64.26L23.27 63.04L23.66 63.12C24.36 63.26 24.8 63.93 24.65 64.61C24.53 65.2 23.99 65.6 23.4 65.6ZM18.82 69C18.37 69 17.93 68.76 17.7 68.35C17.36 67.74 17.58 66.98 18.2 66.64L22.86 64.13L20.3 59.56C19.95 58.95 20.18 58.19 20.8 57.86C21.42 57.52 22.19 57.74 22.54 58.35L25.72 64.02C25.88 64.31 25.92 64.65 25.83 64.97C25.73 65.29 25.51 65.56 25.22 65.72L19.43 68.84C19.24 68.95 19.03 69 18.82 69Z" />
	 <path
     id="Shape 52-1"
     class="shp1"
     d="m 75.98,54.59 -54.52,0 c -0.7,0 -1.27,-0.56 -1.27,-1.25 l 0,-28.72 c 0,-0.69 0.57,-1.25 1.27,-1.25 l 54.52,0 c 0.71,0 1.28,0.56 1.28,1.25 l 0,28.72 c 0,0.69 -0.57,1.25 -1.28,1.25 z m -53.24,-2.51 51.96,0 0,-26.2 -51.96,0 z M 21.8,32.68 c -0.7,0 -1.28,-0.56 -1.28,-1.25 0,-0.69 0.58,-1.26 1.28,-1.26 3.03,0 5.5,-2.41 5.5,-5.38 0,-0.69 0.57,-1.25 1.28,-1.25 0.7,0 1.27,0.56 1.27,1.25 0,4.35 -3.61,7.89 -8.05,7.89 z m 53.51,0 c -4.44,0 -8.05,-3.54 -8.05,-7.89 0,-0.69 0.57,-1.25 1.27,-1.25 0.71,0 1.28,0.56 1.28,1.25 0,2.97 2.47,5.38 5.5,5.38 0.7,0 1.28,0.57 1.28,1.26 0,0.69 -0.58,1.25 -1.28,1.25 z m -6.78,21.91 c -0.7,0 -1.27,-0.56 -1.27,-1.25 0,-4.35 3.61,-7.9 8.05,-7.9 0.7,0 1.28,0.57 1.28,1.26 0,0.69 -0.58,1.25 -1.28,1.25 -3.03,0 -5.5,2.42 -5.5,5.39 0,0.69 -0.57,1.25 -1.28,1.25 z m -39.95,0 c -0.71,0 -1.28,-0.56 -1.28,-1.25 0,-2.97 -2.47,-5.39 -5.5,-5.39 -0.7,0 -1.28,-0.56 -1.28,-1.25 0,-0.69 0.58,-1.26 1.28,-1.26 4.44,0 8.05,3.55 8.05,7.9 0,0.69 -0.57,1.25 -1.27,1.25 z m 20.86,-3.9 c -6.56,0 -11.9,-5.23 -11.9,-11.67 0,-6.43 5.34,-11.67 11.9,-11.67 6.57,0 11.91,5.24 11.91,11.67 0,6.44 -5.34,11.67 -11.91,11.67 z m 0,-20.83 c -5.15,0 -9.34,4.11 -9.34,9.16 0,5.05 4.19,9.16 9.34,9.16 5.16,0 9.35,-4.11 9.35,-9.16 0,-5.05 -4.19,-9.16 -9.35,-9.16 z m -0.63,13.38 c -0.84,-0.08 -1.53,-0.3 -2.1,-0.62 -0.48,-0.27 -0.62,-0.9 -0.3,-1.35 l 0.01,-0.01 c 0.29,-0.4 0.83,-0.52 1.25,-0.27 0.53,0.31 1.18,0.53 1.92,0.53 0.72,0 1.16,-0.28 1.16,-0.66 0,-1.09 -4.61,-0.21 -4.61,-3.28 0,-1.21 0.94,-2.3 2.67,-2.5 l 0,-1.12 1.35,0 0,1.13 c 0.59,0.08 1.13,0.24 1.62,0.49 0.52,0.25 0.63,0.92 0.29,1.37 l 0,0 c -0.29,0.36 -0.79,0.45 -1.21,0.24 -0.54,-0.26 -1.14,-0.39 -1.7,-0.39 -0.61,0 -0.88,0.24 -0.88,0.57 0,1.02 4.6,0.28 4.6,3.24 0,1.43 -0.96,2.44 -2.72,2.63 l 0,1.08 -1.35,0 z m 22.6,-21.35 -46.05,0 c -0.71,0 -1.28,-0.56 -1.28,-1.25 0,-0.69 0.57,-1.25 1.28,-1.25 l 46.05,0 c 0.71,0 1.28,0.56 1.28,1.25 0,0.69 -0.57,1.25 -1.28,1.25 z m -5.71,-3.65 -34.42,0 c -0.7,0 -1.27,-0.56 -1.27,-1.25 0,-0.69 0.57,-1.26 1.27,-1.26 l 34.42,0 c 0.7,0 1.28,0.57 1.28,1.26 0,0.69 -0.58,1.25 -1.28,1.25 z"/>
   	 <path
     id="Shape 52-3"
     class="shp1"
     d="m 93.857201,20.41856 c 0,-0.45 -0.24,-0.89 -0.65,-1.12 -0.61,-0.34 -1.37,-0.12 -1.71,0.5 l -2.51,4.66 -4.57,-2.56 c -0.61,-0.35 -1.37,-0.12 -1.7,0.5 -0.34,0.62 -0.12,1.39 0.49,1.74 l 5.67,3.18 c 0.29,0.16 0.63,0.2 0.95,0.11 0.32,-0.1 0.59,-0.32 0.75,-0.61 l 3.12,-5.79 c 0.11,-0.19 0.16,-0.4 0.16,-0.61 z m -3.4,4.58 c 0,-0.09 -0.01,-0.17 -0.03,-0.26 l -0.08,-0.42 c -0.01,-0.01 -0.05,-0.22 -0.05,-0.23 l -0.07,-0.3 c -2.94,-12.39001 -13.29,-21.30001 -25.77,-22.18001 -0.69,-0.04 -1.29,0.49 -1.34,1.19 -0.03,0.74 0.48,1.32 1.17,1.37 11.38,0.79 20.82,8.92001 23.5,20.22001 l 0.07,0.29 1.26,-0.09 -1.22,0.28 0.08,0.39 c 0.14,0.7 0.81,1.14 1.49,0.99 0.59,-0.12 0.99,-0.66 0.99,-1.25 z m 3.4,-4.58 c 0,-0.45 -0.24,-0.89 -0.65,-1.12 -0.61,-0.34 -1.37,-0.12 -1.71,0.5 l -2.51,4.66 -4.57,-2.56 c -0.61,-0.35 -1.37,-0.12 -1.7,0.5 -0.34,0.62 -0.12,1.39 0.49,1.74 l 5.67,3.18 c 0.29,0.16 0.63,0.2 0.95,0.11 0.32,-0.1 0.59,-0.32 0.75,-0.61 l 3.12,-5.79 c 0.11,-0.19 0.16,-0.4 0.16,-0.61 z"/>
  	 <path
     id="Shape 52-3-6"
     class="shp1"
     d="m 1.590536,48.90407 c 0,0.45 0.24,0.89 0.65,1.12 0.61,0.34 1.37,0.12 1.71,-0.5 l 2.51,-4.66 4.57,2.56 c 0.61,0.35 1.37,0.12 1.7,-0.5 0.34,-0.62 0.12,-1.39 -0.49,-1.74 l -5.67,-3.18 c -0.29,-0.16 -0.63,-0.2 -0.95,-0.11 -0.32,0.1 -0.59,0.32 -0.75,0.61 l -3.12,5.79 c -0.11,0.19 -0.16,0.4 -0.16,0.61 z m 3.4,-4.58 c 0,0.09 0.01,0.17 0.03,0.26 l 0.08,0.42 c 0.01,0.01 0.05,0.22 0.05,0.23 l 0.07,0.3 c 2.94,12.39 13.29,21.3 25.77,22.18 0.69,0.04 1.29,-0.49 1.34,-1.19 0.03,-0.74 -0.48,-1.32 -1.17,-1.37 -11.38,-0.79 -20.82,-8.92 -23.5,-20.22 l -0.07,-0.29 -1.26,0.09 1.22,-0.28 -0.08,-0.39 c -0.14,-0.7 -0.81,-1.14 -1.49,-0.99 -0.59,0.12 -0.99,0.66 -0.99,1.25 z m -3.4,4.58 c 0,0.45 0.24,0.89 0.65,1.12 0.61,0.34 1.37,0.12 1.71,-0.5 l 2.51,-4.66 4.57,2.56 c 0.61,0.35 1.37,0.12 1.7,-0.5 0.34,-0.62 0.12,-1.39 -0.49,-1.74 l -5.67,-3.18 c -0.29,-0.16 -0.63,-0.2 -0.95,-0.11 -0.32,0.1 -0.59,0.32 -0.75,0.61 l -3.12,5.79 c -0.11,0.19 -0.16,0.4 -0.16,0.61 z"/>
   	 <path
     id="Shape 52-7"
     class="shp1"
     d="m 61.395594,14.410097 -25.546637,0 c -0.519543,0 -0.942598,-0.56 -0.942598,-1.25 0,-0.69 0.423055,-1.26 0.942598,-1.26 l 25.546637,0 c 0.519543,0 0.95002,0.57 0.95002,1.26 0,0.69 -0.430477,1.25 -0.95002,1.25 z"/>
</svg>